<svg width="36" height="36" viewBox="0 0 36 36" fill="none" xmlns="http://www.w3.org/2000/svg">
<g clip-path="url(#clip0_3616_1484)">
<path d="M30 3H28.5V1.5C28.5 1.10218 28.342 0.720644 28.0607 0.43934C27.7794 0.158035 27.3978 0 27 0C26.6022 0 26.2206 0.158035 25.9393 0.43934C25.658 0.720644 25.5 1.10218 25.5 1.5V3H10.5V1.5C10.5 1.10218 10.342 0.720644 10.0607 0.43934C9.77936 0.158035 9.39782 0 9 0C8.60218 0 8.22064 0.158035 7.93934 0.43934C7.65804 0.720644 7.5 1.10218 7.5 1.5V3H6C4.4087 3 2.88258 3.63214 1.75736 4.75736C0.632141 5.88258 0 7.4087 0 9L0 30C0 31.5913 0.632141 33.1174 1.75736 34.2426C2.88258 35.3679 4.4087 36 6 36H30C31.5913 36 33.1174 35.3679 34.2426 34.2426C35.3679 33.1174 36 31.5913 36 30V9C36 7.4087 35.3679 5.88258 34.2426 4.75736C33.1174 3.63214 31.5913 3 30 3ZM33 30C33 30.7956 32.6839 31.5587 32.1213 32.1213C31.5587 32.6839 30.7956 33 30 33H6C5.20435 33 4.44129 32.6839 3.87868 32.1213C3.31607 31.5587 3 30.7956 3 30V9C3 8.20435 3.31607 7.44129 3.87868 6.87868C4.44129 6.31607 5.20435 6 6 6H7.5V7.5C7.5 7.89782 7.65804 8.27936 7.93934 8.56066C8.22064 8.84196 8.60218 9 9 9C9.39782 9 9.77936 8.84196 10.0607 8.56066C10.342 8.27936 10.5 7.89782 10.5 7.5V6H25.5V7.5C25.5 7.89782 25.658 8.27936 25.9393 8.56066C26.2206 8.84196 26.6022 9 27 9C27.3978 9 27.7794 8.84196 28.0607 8.56066C28.342 8.27936 28.5 7.89782 28.5 7.5V6H30C30.7956 6 31.5587 6.31607 32.1213 6.87868C32.6839 7.44129 33 8.20435 33 9V30Z" fill="#7659FF" fill-opacity="0.37"/>
<path d="M28.5 10.5H7.5C7.10218 10.5 6.72064 10.658 6.43934 10.9393C6.15804 11.2206 6 11.6022 6 12C6 12.3978 6.15804 12.7794 6.43934 13.0607C6.72064 13.342 7.10218 13.5 7.5 13.5H28.5C28.8978 13.5 29.2794 13.342 29.5607 13.0607C29.842 12.7794 30 12.3978 30 12C30 11.6022 29.842 11.2206 29.5607 10.9393C29.2794 10.658 28.8978 10.5 28.5 10.5Z" fill="#7659FF" fill-opacity="0.37"/>
<path d="M10.5 18H7.5C7.10218 18 6.72064 18.158 6.43934 18.4393C6.15804 18.7206 6 19.1022 6 19.5C6 19.8978 6.15804 20.2794 6.43934 20.5607C6.72064 20.842 7.10218 21 7.5 21H10.5C10.8978 21 11.2794 20.842 11.5607 20.5607C11.842 20.2794 12 19.8978 12 19.5C12 19.1022 11.842 18.7206 11.5607 18.4393C11.2794 18.158 10.8978 18 10.5 18Z" fill="#7659FF" fill-opacity="0.37"/>
<path d="M10.5 25.5H7.5C7.10218 25.5 6.72064 25.658 6.43934 25.9393C6.15804 26.2206 6 26.6022 6 27C6 27.3978 6.15804 27.7794 6.43934 28.0607C6.72064 28.342 7.10218 28.5 7.5 28.5H10.5C10.8978 28.5 11.2794 28.342 11.5607 28.0607C11.842 27.7794 12 27.3978 12 27C12 26.6022 11.842 26.2206 11.5607 25.9393C11.2794 25.658 10.8978 25.5 10.5 25.5Z" fill="#7659FF" fill-opacity="0.37"/>
<path d="M19.5 18H16.5C16.1022 18 15.7206 18.158 15.4393 18.4393C15.158 18.7206 15 19.1022 15 19.5C15 19.8978 15.158 20.2794 15.4393 20.5607C15.7206 20.842 16.1022 21 16.5 21H19.5C19.8978 21 20.2794 20.842 20.5607 20.5607C20.842 20.2794 21 19.8978 21 19.5C21 19.1022 20.842 18.7206 20.5607 18.4393C20.2794 18.158 19.8978 18 19.5 18Z" fill="#7659FF" fill-opacity="0.37"/>
<path d="M19.5 25.5H16.5C16.1022 25.5 15.7206 25.658 15.4393 25.9393C15.158 26.2206 15 26.6022 15 27C15 27.3978 15.158 27.7794 15.4393 28.0607C15.7206 28.342 16.1022 28.5 16.5 28.5H19.5C19.8978 28.5 20.2794 28.342 20.5607 28.0607C20.842 27.7794 21 27.3978 21 27C21 26.6022 20.842 26.2206 20.5607 25.9393C20.2794 25.658 19.8978 25.5 19.5 25.5Z" fill="#7659FF" fill-opacity="0.37"/>
<path d="M28.5 18H25.5C25.1022 18 24.7206 18.158 24.4393 18.4393C24.158 18.7206 24 19.1022 24 19.5C24 19.8978 24.158 20.2794 24.4393 20.5607C24.7206 20.842 25.1022 21 25.5 21H28.5C28.8978 21 29.2794 20.842 29.5607 20.5607C29.842 20.2794 30 19.8978 30 19.5C30 19.1022 29.842 18.7206 29.5607 18.4393C29.2794 18.158 28.8978 18 28.5 18Z" fill="#7659FF" fill-opacity="0.37"/>
<path d="M28.5 25.5H25.5C25.1022 25.5 24.7206 25.658 24.4393 25.9393C24.158 26.2206 24 26.6022 24 27C24 27.3978 24.158 27.7794 24.4393 28.0607C24.7206 28.342 25.1022 28.5 25.5 28.5H28.5C28.8978 28.5 29.2794 28.342 29.5607 28.0607C29.842 27.7794 30 27.3978 30 27C30 26.6022 29.842 26.2206 29.5607 25.9393C29.2794 25.658 28.8978 25.5 28.5 25.5Z" fill="#7659FF" fill-opacity="0.37"/>
</g>
<defs>
<clipPath id="clip0_3616_1484">
<rect width="36" height="36" fill="white"/>
</clipPath>
</defs>
</svg>
