<svg width="613" height="529" viewBox="0 0 613 529" fill="none" xmlns="http://www.w3.org/2000/svg">
<path d="M555.991 142.93C551.658 142.16 547.186 142.187 542.867 143.01C531.256 145.337 522.687 153.785 516.299 162.472C509.912 171.158 504.652 180.722 495.948 187.721C487.243 194.719 473.457 198.507 463.244 193.196C455.765 189.308 451.873 181.526 444.376 177.665C435.757 173.232 424.196 175.226 416.221 180.468C409.741 184.727 405.187 190.726 401.558 197.068V230.268H555.991V142.93Z" fill="#79BFFB"/>
<path d="M556.316 141.867C550.799 140.973 545.129 141.047 539.765 142.613C535.356 143.978 531.292 146.061 527.793 148.749C520.37 154.293 515.288 161.62 510.353 168.851C505.419 176.083 500.208 183.896 492.172 188.991C485.177 193.439 475.621 196.195 467.131 193.582C458.432 190.911 454.454 182.918 447.515 178.241C443.826 175.731 439.311 174.293 434.617 174.136C429.854 174.02 425.129 174.91 420.855 176.728C411.807 180.458 405.616 187.837 401.129 195.323C400.664 195.937 400.376 196.639 400.289 197.37V230.268C400.294 230.56 400.43 230.839 400.67 231.046C400.909 231.252 401.232 231.37 401.57 231.374H549.732C551.737 231.374 553.741 231.406 555.74 231.374H555.991C556.329 231.37 556.652 231.252 556.892 231.046C557.131 230.839 557.267 230.56 557.272 230.268V153.637C557.272 150.125 557.395 146.591 557.272 143.057V142.909C557.272 141.486 554.71 141.486 554.71 142.909V226.735C554.71 227.851 554.606 229.004 554.71 230.12V230.268L555.991 229.157H407.811C405.818 229.157 403.802 229.078 401.809 229.157H401.546L402.827 230.268V197.068L402.649 197.624C405.659 192.413 409.257 187.377 414.216 183.373C418.869 179.611 424.815 176.95 431.221 176.427C434.285 176.145 437.384 176.428 440.312 177.257C443.151 178.145 445.73 179.561 447.864 181.405C452.357 185.108 455.686 189.784 460.694 193.043C471.115 199.84 485.502 196.471 494.924 189.932C500.22 186.261 504.334 181.389 507.963 176.474C511.641 171.475 514.883 166.228 518.702 161.297C522.215 156.759 526.31 152.41 531.348 149.067C536.706 145.517 543.051 143.401 549.855 143.481C551.796 143.514 553.73 143.691 555.636 144.01C557.248 144.258 557.94 142.126 556.316 141.867Z" fill="#79BFFB"/>
<path d="M348.521 84.6929H360.775V163.63H348.521V84.6929Z" fill="#FFC549"/>
<path d="M360.775 162.525H348.515L349.796 163.63V87.9146C349.796 86.8989 349.9 85.8409 349.796 84.8253V84.693L348.515 85.7986H360.775L359.494 84.693V153.939C359.494 157.113 359.377 160.314 359.494 163.488C359.497 163.532 359.497 163.576 359.494 163.62C359.494 165.043 362.062 165.048 362.062 163.62V94.3737C362.062 91.1997 362.179 87.9993 362.062 84.8253C362.059 84.7812 362.059 84.7371 362.062 84.693C362.058 84.4002 361.92 84.1205 361.68 83.9139C361.439 83.7073 361.114 83.5901 360.775 83.5874H348.515C348.177 83.5915 347.854 83.7093 347.614 83.9158C347.375 84.1222 347.239 84.4011 347.234 84.693V153.939C347.234 157.113 347.111 160.314 347.234 163.488V163.62C347.239 163.912 347.375 164.191 347.614 164.397C347.854 164.604 348.177 164.721 348.515 164.725H360.775C362.43 164.736 362.43 162.525 360.775 162.525Z" fill="#FFC549"/>
<path d="M224.977 139.788H237.231V163.63H224.977V139.788Z" fill="#FF9AC7"/>
<path d="M237.231 162.525H224.971L226.252 163.63V139.788L224.971 140.894H237.231L235.95 139.788V163.63C235.95 165.053 238.512 165.059 238.512 163.63V139.788C238.508 139.496 238.371 139.218 238.132 139.011C237.893 138.805 237.569 138.687 237.231 138.683H224.971C224.633 138.687 224.31 138.805 224.07 139.011C223.831 139.218 223.695 139.496 223.69 139.788V163.63C223.695 163.922 223.831 164.201 224.07 164.408C224.31 164.614 224.633 164.732 224.971 164.736H237.231C238.88 164.736 238.886 162.525 237.231 162.525ZM249.687 128.071H261.941V163.63H249.687V128.071Z" fill="#FF9AC7"/>
<path d="M261.941 162.525H249.681L250.962 163.63V128.071L249.681 129.182H261.941L260.66 128.071V163.63C260.66 165.053 263.222 165.059 263.222 163.63V128.071C263.218 127.779 263.081 127.5 262.842 127.294C262.603 127.087 262.279 126.969 261.941 126.965H249.681C249.342 126.969 249.018 127.087 248.778 127.293C248.538 127.5 248.4 127.779 248.394 128.071V163.63C248.399 163.923 248.536 164.203 248.776 164.409C249.017 164.616 249.342 164.733 249.681 164.736H261.941C263.59 164.736 263.59 162.525 261.941 162.525ZM274.391 131.092H286.645V163.63H274.391V131.092Z" fill="#FF9AC7"/>
<path d="M286.651 162.525H274.391L275.679 163.63V131.092L274.391 132.197H286.651L285.37 131.092V163.63C285.37 165.053 287.932 165.059 287.932 163.63V131.092C287.928 130.799 287.791 130.52 287.552 130.312C287.313 130.105 286.99 129.986 286.651 129.981H274.391C274.052 129.985 273.728 130.103 273.488 130.311C273.249 130.518 273.113 130.799 273.11 131.092V163.63C273.115 163.922 273.251 164.201 273.491 164.408C273.73 164.614 274.053 164.732 274.391 164.736H286.651C288.3 164.736 288.3 162.525 286.651 162.525ZM299.101 118.316H311.355V163.63H299.101V118.316Z" fill="#FF9AC7"/>
<path d="M311.361 162.525H299.101L300.382 163.63V120.163C300.419 119.574 300.419 118.984 300.382 118.396V118.316L299.101 119.422H311.361L310.074 118.316V158.023C310.074 159.859 309.988 161.726 310.074 163.551C310.077 163.578 310.077 163.604 310.074 163.63C310.074 165.053 312.642 165.059 312.642 163.63V123.924C312.642 122.088 312.734 120.221 312.642 118.396V118.316C312.638 118.024 312.501 117.746 312.262 117.539C312.023 117.333 311.699 117.215 311.361 117.211H299.101C298.763 117.215 298.44 117.333 298.2 117.539C297.961 117.746 297.825 118.024 297.82 118.316V158.023C297.82 159.859 297.728 161.726 297.82 163.551V163.63C297.825 163.922 297.961 164.201 298.2 164.408C298.44 164.614 298.763 164.732 299.101 164.736H311.361C313.01 164.736 313.01 162.525 311.361 162.525ZM323.811 106.382H336.065V163.63H323.811V106.382Z" fill="#FF9AC7"/>
<path d="M336.071 162.525H323.811L325.092 163.63V108.715C325.092 107.985 325.178 107.213 325.092 106.482V106.382L323.811 107.488H336.071L334.784 106.382V156.584C334.784 158.891 334.68 161.218 334.784 163.53C334.787 163.563 334.787 163.597 334.784 163.63C334.784 165.053 337.352 165.059 337.352 163.63V113.428C337.352 111.122 337.457 108.794 337.352 106.482C337.349 106.449 337.349 106.415 337.352 106.382C337.348 106.09 337.211 105.811 336.972 105.605C336.733 105.398 336.409 105.28 336.071 105.276H323.811C323.473 105.28 323.15 105.398 322.91 105.605C322.671 105.811 322.535 106.09 322.53 106.382V156.584C322.53 158.891 322.426 161.218 322.53 163.53V163.63C322.535 163.922 322.671 164.201 322.91 164.408C323.15 164.614 323.473 164.732 323.811 164.736H336.071C337.72 164.736 337.72 162.525 336.071 162.525Z" fill="#FF9AC7"/>
<path d="M593.654 300.662H193.978C190.3 300.662 186.658 300.779 183.017 300.662C180.958 300.599 179.952 299.329 179.909 297.689C179.866 296.05 179.909 294.452 179.909 292.833V62.8241C179.909 60.9726 179.64 58.7984 182.656 58.5445C183.354 58.4863 184.102 58.5445 184.813 58.5445H589.835C591.005 58.5445 592.182 58.5021 593.353 58.5445C595.499 58.6238 596.363 59.9728 596.418 61.6021C596.498 66.4107 596.418 71.2246 596.418 76.0279V296.346C596.418 298.171 596.719 300.488 593.678 300.662C592.035 300.758 592.023 302.969 593.678 302.874C597.693 302.641 598.981 299.922 598.981 296.981V75.938C598.981 71.1294 599.03 66.3208 598.981 61.5175C598.981 58.7138 597.044 56.4496 593.574 56.3332C592.593 56.2962 591.606 56.3332 590.625 56.3332H184.562C183.636 56.2873 182.707 56.3103 181.785 56.402C178.107 56.931 177.365 59.703 177.365 62.3533V292.95C177.365 296.796 176.329 302.673 182.815 302.874C186.119 302.979 189.448 302.874 192.758 302.874H593.66C595.303 302.874 595.303 300.662 593.654 300.662ZM47.7036 216.79C47.7608 221.219 47.91 225.645 48.1511 230.067C48.2001 231.014 48.2982 232.051 49.0706 232.712C49.7032 233.174 50.4711 233.476 51.2897 233.585C75.2457 238.669 101.464 240.108 123.801 231.073C125.193 230.512 126.627 229.856 127.418 228.724C128.117 227.724 128.203 226.502 128.252 225.333C128.65 216.227 128.135 207.108 126.713 198.079" fill="black"/>
<path d="M47.2318 216.789C47.2563 221.127 47.3666 225.467 47.5628 229.808C47.6363 231.469 47.9183 233.067 49.8922 233.781C51.7312 234.453 53.8706 234.717 55.8138 235.088C64.4653 236.792 73.2769 237.823 82.1421 238.166C90.8964 238.517 99.6663 237.884 108.231 236.283C112.45 235.469 116.583 234.356 120.589 232.956C122.551 232.36 124.434 231.585 126.205 230.644C126.999 230.171 127.655 229.546 128.122 228.817C128.589 228.088 128.854 227.276 128.896 226.444C129.147 224.19 129.098 221.884 129.098 219.62C129.098 217.19 129.039 214.762 128.92 212.335C128.769 207.512 128.245 202.704 127.351 197.941C127.222 197.328 126.008 197.46 126.076 198.089C126.505 202.147 127.112 206.183 127.382 210.256C127.651 214.33 127.749 218.408 127.657 222.482C127.657 223.508 127.608 224.534 127.553 225.56C127.573 226.48 127.364 227.393 126.94 228.237C126.082 229.671 124.09 230.316 122.484 230.946C118.667 232.418 114.716 233.616 110.671 234.527C94.3531 238.23 77.0971 237.452 60.6565 234.77C58.278 234.382 55.9098 233.954 53.5518 233.485C52.4775 233.318 51.4169 233.092 50.3765 232.808C49.1505 232.416 48.8624 231.506 48.7643 230.48C48.3229 225.936 48.2739 221.339 48.1513 216.789C48.1381 216.69 48.083 216.598 47.9965 216.532C47.91 216.465 47.7982 216.428 47.6823 216.428C47.5664 216.428 47.4546 216.465 47.3681 216.532C47.2816 216.598 47.2266 216.69 47.2134 216.789H47.2318Z" fill="black"/>
<path d="M229.035 183.352C227.629 180.696 226.223 178.042 224.818 175.39C224.413 174.623 223.959 173.803 223.114 173.396C222.268 172.988 221.042 173.089 220.006 173.29C216.187 174.036 212.57 175.379 208.972 176.681C199.495 180.091 189.903 183.256 180.197 186.176C179.106 186.504 177.935 186.838 176.814 186.594C175.979 186.354 175.217 185.956 174.582 185.43C162.532 176.751 152.287 166.36 144.288 154.706C142.228 151.701 140.254 148.543 137.171 146.284C134.891 144.608 132.114 143.518 129.3 142.608C120.807 139.873 111.756 138.661 102.702 139.048H101.568C101.599 139.117 101.635 139.18 101.666 139.249C101.924 139.749 102.068 140.288 102.089 140.836C102.034 141.466 101.825 142.079 101.476 142.634C99.4784 146.289 96.8378 149.654 93.6479 152.611C93.3414 152.942 92.9486 153.204 92.5016 153.378C91.4779 153.701 90.4051 153.087 89.5469 152.511L84.6981 149.236C84.5547 149.115 84.3698 149.037 84.1709 149.014C83.9547 149.038 83.754 149.124 83.6008 149.257L80.6033 151.416C79.6307 152.191 78.519 152.825 77.3115 153.294C76.7037 153.522 76.0411 153.619 75.3803 153.577C74.7195 153.536 74.0801 153.357 73.517 153.056C72.8604 152.587 72.3275 152.003 71.9538 151.342C69.5018 147.729 67.0498 143.936 66.4859 139.81L52.062 140.116C52.062 140.116 39.4832 179.67 43.2593 193.355C47.0354 207.04 60.7605 203.803 68.5762 204.543C76.392 205.284 133.432 198.195 133.885 196.243C134.339 194.291 132.23 191.884 132.236 189.033C132.242 186.182 139.629 183.478 143.509 182.685C147.39 181.891 149.106 184.801 147.88 186.049C146.654 187.298 146.599 185.944 153.71 190.784C160.82 195.624 156.897 199.386 154.623 202.157C152.349 204.929 148.144 204.046 145.698 203.744C143.252 203.443 138.52 201.311 138.52 201.311C140.224 202.575 155.806 213.108 157.657 214.219C172.682 223.212 191.115 213.457 203.632 205.686C212.49 200.184 220.392 193.635 228.257 187.107C228.602 186.917 228.898 186.668 229.126 186.374C229.354 186.081 229.51 185.75 229.583 185.403C229.656 185.055 229.645 184.698 229.551 184.354C229.456 184.01 229.281 183.687 229.035 183.404V183.352Z" fill="black"/>
<path d="M229.587 183.071L225.909 176.104C225.002 174.39 224.144 172.533 221.618 172.549C220.447 172.609 219.291 172.803 218.179 173.126C216.739 173.47 215.329 173.893 213.931 174.348C211.301 175.21 208.727 176.183 206.127 177.104C200.766 179.001 195.365 180.824 189.926 182.574C187.204 183.441 184.476 184.293 181.742 185.129C180.516 185.504 179.162 186.065 177.838 186.118C176.287 186.181 175.146 185.123 174.055 184.325C166.161 178.534 159.052 171.991 152.864 164.82C149.801 161.254 146.966 157.546 144.374 153.711C141.861 150.008 139.268 146.427 134.885 144.189C132.339 142.963 129.647 141.981 126.854 141.259C123.88 140.417 120.84 139.762 117.757 139.296C112.408 138.558 106.986 138.288 101.574 138.492C101.463 138.495 101.354 138.522 101.259 138.571C101.163 138.621 101.084 138.69 101.028 138.774C100.973 138.857 100.943 138.951 100.942 139.048C100.941 139.144 100.969 139.238 101.022 139.323C101.238 139.69 101.367 140.09 101.401 140.501C101.436 140.911 101.376 141.323 101.225 141.714C100.847 142.532 100.4 143.326 99.8884 144.089C98.1495 146.904 96.0122 149.521 93.5255 151.881C92.7899 152.574 92.1401 153.145 91.0122 152.664C90.1373 152.225 89.3159 151.711 88.5602 151.13L86.2798 149.585C85.7097 149.204 84.9496 148.448 84.1588 148.437C83.5458 148.437 83.0309 148.919 82.5896 149.231L80.2724 150.897C78.9483 151.849 77.4465 152.981 75.6259 153.013C73.5356 153.013 72.7325 151.426 71.8314 150.061C69.7104 146.887 67.6385 143.507 67.1174 139.799C67.1073 139.661 67.0395 139.532 66.9267 139.434C66.8138 139.337 66.6637 139.278 66.5044 139.27L52.0806 139.571C51.942 139.576 51.8086 139.618 51.6988 139.691C51.589 139.764 51.5081 139.864 51.4676 139.979C50.1741 143.888 49.0401 147.871 48.0041 151.823C45.8098 159.789 44.081 167.845 42.8243 175.961C42.2262 179.725 41.9211 183.52 41.9109 187.319C41.9599 190.863 42.4932 194.402 44.3322 197.618C45.2724 199.271 46.6244 200.724 48.2914 201.872C49.9585 203.021 51.8992 203.837 53.9747 204.263C57.8182 205.098 61.8089 204.897 65.7382 204.95C67.994 204.95 70.1886 205.167 72.4812 205.072C75.6381 204.929 78.7828 204.665 81.9214 204.374C90.5034 203.591 99.0118 202.591 107.526 201.48C114.809 200.533 122.128 199.576 129.312 198.158C130.784 197.867 132.77 197.655 134.045 196.888C135.32 196.121 134.376 194.111 134.008 193.148C133.499 191.831 132.782 190.361 132.911 188.916C132.99 188.075 133.757 187.398 134.456 186.869C136.497 185.34 139.206 184.372 141.744 183.642C143.528 183.113 147.212 182.304 147.641 184.764C147.801 185.679 146.624 185.869 146.648 186.658C146.673 187.446 148.315 188.001 148.916 188.345C150.077 189.016 151.209 189.722 152.312 190.461C153.79 191.434 155.298 192.461 156.278 193.847C157.559 195.656 157.259 197.55 156.076 199.317C154.954 201.004 153.563 202.956 151.221 203.385C149.002 203.787 146.256 203.348 144.129 202.729C142.322 202.186 140.566 201.526 138.875 200.755C138.262 200.48 137.514 201.194 138.097 201.623C141.634 204.236 145.398 206.648 149.069 209.119C151.172 210.531 153.268 211.944 155.389 213.351C157.326 214.693 159.452 215.818 161.716 216.699C169.605 219.577 178.267 218.16 185.911 215.356C193.984 212.378 201.407 207.95 208.285 203.3C212.852 200.205 217.186 196.867 221.422 193.445C223.543 191.731 225.647 190.003 227.736 188.26C228.569 187.573 229.618 186.885 230.071 185.938C230.525 184.991 230.102 183.965 229.618 183.044C229.28 182.399 228.177 182.96 228.514 183.605C228.86 184.108 229.023 184.688 228.98 185.272C228.79 185.779 228.429 186.226 227.944 186.557C227.037 187.324 226.105 188.075 225.198 188.832C223.396 190.324 221.581 191.806 219.754 193.281C216.181 196.143 212.539 198.946 208.72 201.581C202.112 206.172 194.959 210.489 187.265 213.615C179.989 216.573 171.53 218.472 163.647 216.165C158.816 214.747 154.881 211.658 150.921 208.992C146.961 206.326 142.829 203.702 138.986 200.851L138.207 201.718C141.946 203.385 146.268 204.956 150.577 204.585C151.873 204.508 153.11 204.093 154.127 203.395C154.94 202.723 155.646 201.962 156.229 201.131C157.4 199.692 158.467 198.052 158.418 196.243C158.35 193.704 156.205 191.725 154.029 190.244C152.153 188.964 150.203 187.795 148.205 186.663C148.07 186.589 147.85 186.446 147.843 186.451C147.733 186.483 147.929 186.361 147.892 186.562C147.892 186.647 147.892 186.874 147.862 186.837C147.831 186.8 147.751 186.922 147.892 186.837C147.941 186.8 147.984 186.753 148.027 186.716C148.195 186.574 148.349 186.42 148.487 186.256C149.615 184.848 148.414 182.992 146.807 182.336C144.539 181.405 141.769 182.436 139.617 183.177C137.257 183.986 134.713 184.996 132.948 186.61C132.247 187.186 131.785 187.944 131.63 188.768C131.47 190.07 131.979 191.445 132.445 192.667C132.666 193.249 132.911 193.831 133.095 194.429C133.217 194.979 133.277 195.539 133.272 196.1C133.272 195.936 133.413 196.031 133.315 195.994C133.217 195.957 133.499 195.92 133.315 195.994C133.266 195.994 133.217 196.047 133.162 196.068C132.937 196.161 132.706 196.24 132.469 196.307C132.071 196.423 131.672 196.523 131.274 196.619C130.146 196.888 129 197.116 127.86 197.327C124.525 197.957 121.166 198.475 117.8 198.973C109.108 200.258 100.373 201.353 91.6191 202.316C84.7719 203.067 77.8511 203.903 70.9426 204.046C68.3312 204.104 65.7198 203.866 63.1023 203.866C59.1362 203.866 54.9187 203.866 51.2898 202.279C43.0143 198.735 42.8488 189.541 43.3576 182.664C43.9706 174.305 45.7728 166.011 47.7834 157.832C49.1647 152.225 50.7034 146.648 52.3993 141.1L52.6568 140.264L52.0438 140.672L66.4677 140.365L65.8547 139.836C66.3696 143.465 68.1963 146.755 70.256 149.887C71.1326 151.23 71.9847 153.061 73.6888 153.78C75.2703 154.447 77.1339 154.098 78.5928 153.378C80.3828 152.5 81.9337 151.183 83.4968 150.045C83.834 149.807 83.8769 149.675 84.2815 149.739C84.588 149.786 84.8577 150.051 85.0906 150.209L86.3718 151.077L89.1487 152.95C90.5402 153.875 92.2137 154.537 93.6787 153.368C95.1876 152.105 96.5394 150.71 97.7123 149.204C99.0882 147.57 100.318 145.848 101.39 144.052C101.964 143.228 102.397 142.337 102.678 141.407C102.803 140.516 102.617 139.614 102.144 138.815L101.586 139.645C106.41 139.454 111.243 139.634 116.029 140.185C121.41 140.858 126.663 142.15 131.648 144.025C134.045 144.903 136.221 146.175 138.054 147.771C139.685 149.334 141.108 151.05 142.296 152.886C144.919 156.69 147.592 160.44 150.596 164.032C156.472 171.055 163.214 177.508 170.702 183.277C171.585 183.954 172.476 184.621 173.375 185.277C174.282 185.938 175.214 186.716 176.354 187.049C177.456 187.302 178.623 187.25 179.689 186.901C181.068 186.531 182.417 186.081 183.771 185.668C189.239 183.986 194.671 182.223 200.065 180.378C202.983 179.384 205.892 178.365 208.794 177.321C211.669 176.263 214.532 175.205 217.511 174.432C218.835 174.078 220.343 173.602 221.741 173.644C223.31 173.686 223.855 174.877 224.419 175.94L228.484 183.621C228.827 184.277 229.93 183.716 229.587 183.071Z" fill="black"/>
<path d="M79.4202 152.934C80.8547 153.167 81.8722 154.362 82.1542 155.579C82.3472 156.829 82.2724 158.098 81.9335 159.324C79.6348 171.147 77.146 190.276 73.8849 200.719C73.7684 201.105 75.3315 195.603 75.4909 195.958C75.6456 196.244 75.8844 196.49 76.1836 196.672L85.3234 203.231L92.1093 196.883C92.6415 196.541 93.038 196.065 93.2443 195.52C93.4506 194.976 93.4567 194.389 93.2618 193.842L85.9058 158.176C85.7158 157.462 85.6497 156.728 85.7096 155.997C85.8328 155.241 86.2159 154.535 86.8093 153.969C87.4027 153.403 88.1791 153.004 89.0382 152.823C88.2474 150.971 86.3349 150.395 84.2139 149.649C82.5465 150.813 81.3328 151.284 80.2846 152.897" fill="#7659FF"/>
<path d="M79.3037 153.304C81.7557 153.918 81.7557 156.431 81.4799 158.192C81.2347 159.658 80.9159 161.118 80.6523 162.578C80.0884 165.704 79.5612 168.836 79.0401 171.967C77.9306 178.569 76.8456 185.192 75.4418 191.741C74.8288 194.683 74.2587 197.74 73.2044 200.592L74.5836 200.756C74.5836 201.073 74.5836 200.787 74.6204 200.703C74.6756 200.533 74.7124 200.369 74.7614 200.2C74.9147 199.671 75.0679 199.142 75.2273 198.65C75.3867 198.158 75.5522 197.592 75.7299 197.063C75.7974 196.873 75.8648 196.677 75.9445 196.486C75.9445 196.412 75.9445 196.291 75.9813 196.386C75.9384 196.18 76.8027 196.275 75.6564 196.539L75.1108 196.476C74.884 196.238 74.8227 196.201 74.9269 196.36C74.9671 196.447 75.0252 196.528 75.0986 196.598C75.2212 196.74 75.3609 196.872 75.5154 196.989C75.9077 197.301 76.3307 197.576 76.7414 197.872L79.4325 199.809L84.8207 203.676C84.9549 203.789 85.1354 203.853 85.3234 203.853C85.5114 203.853 85.6919 203.789 85.8261 203.676L90.2458 199.555L92.4036 197.544C93.0241 197.041 93.5295 196.442 93.8931 195.778C94.1269 195.105 94.1438 194.39 93.9422 193.709C93.7532 192.753 93.5489 191.799 93.3292 190.847L92.1951 185.383L87.6589 163.281L87.0091 160.155C86.7378 159.121 86.5331 158.076 86.3961 157.023C86.3005 156.238 86.5361 155.45 87.0597 154.803C87.5833 154.155 88.3597 153.693 89.2466 153.5C89.4412 153.453 89.6064 153.342 89.7063 153.19C89.8062 153.038 89.8326 152.859 89.7799 152.691C88.8298 150.606 86.672 149.839 84.4284 149.035C84.296 149.005 84.1568 149.005 84.0245 149.036C83.8922 149.066 83.7715 149.126 83.6744 149.21C82.1481 150.268 80.6094 151.098 79.6102 152.585C79.5228 152.739 79.5062 152.917 79.5639 153.082C79.6216 153.246 79.7492 153.386 79.9213 153.473C80.0933 153.56 80.2971 153.588 80.4918 153.55C80.6864 153.513 80.8576 153.414 80.9711 153.272C81.8906 151.902 83.3679 151.119 84.7656 150.157L84.0116 150.326C85.6789 150.913 87.5976 151.479 88.3026 153.04L88.8298 152.236C88.0851 152.399 87.3924 152.704 86.8025 153.129C86.2127 153.554 85.7407 154.087 85.4215 154.69C84.6307 156.182 85.1272 157.753 85.4215 159.293L87.7447 170.618C89.2772 178.084 90.8077 185.549 92.3361 193.011C92.5323 193.974 92.9491 194.979 92.2258 195.846C91.5206 196.621 90.7546 197.353 89.9332 198.036L84.7962 202.829H85.8199L79.0218 197.952C77.9642 197.271 76.9813 196.508 76.0855 195.672C76.0132 195.577 75.9134 195.5 75.796 195.449C75.6787 195.397 75.5478 195.374 75.4164 195.379C75.285 195.385 75.1577 195.421 75.0471 195.482C74.9365 195.544 74.8464 195.629 74.7859 195.73C74.2465 196.518 74.0749 197.613 73.8113 198.481C73.531 199.215 73.3259 199.969 73.1983 200.734C73.1308 201.443 74.3446 201.523 74.5775 200.898C75.4514 198.207 76.1351 195.472 76.6249 192.709C77.3483 189.377 77.9797 186.023 78.5743 182.658C79.8003 175.898 80.8056 169.111 82.0255 162.35C82.1726 161.53 82.3197 160.71 82.4791 159.89C82.7593 158.803 82.9031 157.693 82.9082 156.579C82.7978 154.812 81.7312 152.876 79.5183 152.548C79.4615 152.534 79.4022 152.53 79.3438 152.537C79.2854 152.543 79.2289 152.559 79.1777 152.584C79.1265 152.609 79.0814 152.643 79.0452 152.683C79.009 152.723 78.9823 152.769 78.9666 152.818C78.9509 152.867 78.9465 152.918 78.9537 152.968C78.961 153.019 78.9796 153.067 79.0086 153.111C79.0377 153.156 79.0765 153.195 79.1229 153.226C79.1694 153.257 79.2225 153.28 79.2792 153.294L79.3037 153.304Z" fill="#7659FF"/>
<path d="M66.2837 106.551C66.0999 108.63 66.0446 110.715 66.1182 112.799C66.1435 114.972 66.3628 117.14 66.7741 119.284C67.6323 123.516 69.6797 127.389 73.5171 130.155C75.7864 131.88 78.4517 133.173 81.339 133.948C84.0741 134.602 86.9963 134.322 89.498 133.165C91.8845 132.109 94.0066 130.658 95.7431 128.895C97.4796 127.131 98.7965 125.09 99.6187 122.887C100.359 120.399 100.737 117.842 100.747 115.274C100.923 112.257 100.913 109.234 100.716 106.218C100.716 106.078 100.651 105.943 100.536 105.844C100.421 105.745 100.266 105.689 100.103 105.689C99.9404 105.689 99.7844 105.745 99.6695 105.844C99.5545 105.943 99.4899 106.078 99.4899 106.218C99.2447 110.979 99.7413 115.83 98.7237 120.559C97.7583 124.74 94.9439 128.433 90.8773 130.853C88.695 132.197 86.0897 133.213 83.3558 132.922C80.5114 132.62 77.8755 131.308 75.6197 129.848C73.6907 128.643 72.066 127.111 70.8444 125.347C69.7123 123.637 68.8856 121.789 68.3924 119.866C67.8454 117.664 67.5234 115.425 67.43 113.174C67.2952 110.974 67.381 108.752 67.1848 106.551C67.1848 106.45 67.1383 106.353 67.0556 106.282C66.9728 106.21 66.8605 106.17 66.7435 106.17C66.6264 106.17 66.5141 106.21 66.4314 106.282C66.3486 106.353 66.3021 106.45 66.3021 106.551H66.2837Z" fill="black"/>
<path d="M66.9274 110.08C66.9948 109.631 66.8882 109.175 66.6244 108.784C66.3605 108.392 65.9541 108.087 65.4684 107.916C64.9476 107.746 64.381 107.71 63.837 107.813C63.2931 107.915 62.7952 108.151 62.4034 108.493C61.9792 108.864 61.6507 109.309 61.4394 109.797C61.2282 110.286 61.1389 110.807 61.1774 111.328C61.1626 112.393 61.574 113.43 62.3421 114.264C62.8586 114.708 63.4653 115.067 64.1321 115.322C64.4447 115.454 64.7451 115.576 65.0945 115.687C65.4555 115.84 65.851 115.923 66.2531 115.93C66.3987 115.944 66.5452 115.912 66.6661 115.841C66.7869 115.769 66.8741 115.663 66.9119 115.541C66.9497 115.419 66.9356 115.289 66.8721 115.175C66.8086 115.061 66.6999 114.971 66.5657 114.92C66.2838 114.782 65.9803 114.681 65.6646 114.618C65.3764 114.529 65.094 114.427 64.8187 114.312C64.2985 114.112 63.8184 113.842 63.3965 113.513C63.0514 113.14 62.7974 112.71 62.6499 112.25C62.5024 111.79 62.4644 111.309 62.5383 110.836C62.5543 110.413 62.7139 110.004 62.9972 109.659C63.2806 109.313 63.6752 109.048 64.1321 108.895C64.3383 108.829 64.5591 108.806 64.7773 108.827C64.9955 108.848 65.2052 108.912 65.3898 109.015C65.5745 109.117 65.7292 109.255 65.8417 109.418C65.9542 109.581 66.0216 109.764 66.0385 109.953C66.0385 110.381 66.8538 110.482 66.9274 110.058V110.08Z" fill="black"/>
<path d="M64.978 111.444H65.2416C65.1374 111.444 65.1742 111.418 65.2416 111.444C65.2838 111.464 65.3247 111.485 65.3642 111.508C65.2722 111.434 65.4132 111.534 65.3642 111.508L65.4071 111.54L65.4561 111.587C65.5113 111.64 65.4561 111.587 65.4561 111.561C65.5258 111.628 65.5781 111.707 65.6094 111.794L65.5542 111.677C65.5542 111.751 65.6216 111.82 65.6584 111.894L65.6033 111.778C65.6805 111.95 65.742 112.127 65.7872 112.307V112.174V112.201V112.069L65.8485 111.947C65.8516 111.959 65.8516 111.972 65.8485 111.984L65.9404 111.878C65.8149 111.977 65.7219 112.103 65.6707 112.243C65.6261 112.402 65.6427 112.569 65.7179 112.719C65.7931 112.869 65.9229 112.993 66.0875 113.074C66.2042 113.129 66.3344 113.16 66.4676 113.164C66.5797 113.165 66.6899 113.139 66.7863 113.09C66.8765 113.038 66.9537 112.972 67.0132 112.894C67.0523 112.836 67.0774 112.772 67.0869 112.706C67.0963 112.639 67.09 112.572 67.0683 112.508C67.021 112.386 66.9283 112.282 66.8047 112.212C66.6979 112.155 66.5746 112.125 66.4492 112.127H66.6086H66.5534L66.6944 112.18L66.6454 112.153L66.7618 112.233L66.7067 112.185L66.7986 112.286V112.243L66.8599 112.365C66.8572 112.342 66.8572 112.319 66.8599 112.296V112.434V112.381V112.518C66.8565 112.501 66.8565 112.483 66.8599 112.465L66.8047 112.587C66.8005 112.577 66.8005 112.566 66.8047 112.555L66.7128 112.661C66.7496 112.619 66.7986 112.582 66.8354 112.534C66.9325 112.431 66.9846 112.302 66.9825 112.169C66.9719 112.036 66.9368 111.906 66.8783 111.783C66.8293 111.661 66.7741 111.545 66.7128 111.423C66.6464 111.306 66.5641 111.196 66.4676 111.095C66.301 110.912 66.0761 110.774 65.8203 110.699C65.5645 110.624 65.2888 110.614 65.027 110.672C64.9262 110.698 64.8393 110.754 64.7822 110.83C64.725 110.907 64.7013 110.998 64.7154 111.088C64.7294 111.178 64.7803 111.261 64.8588 111.321C64.9373 111.382 65.0383 111.416 65.1435 111.418L64.978 111.444ZM100.796 109.974C100.812 109.785 100.878 109.602 100.99 109.44C101.102 109.277 101.256 109.139 101.44 109.036C101.624 108.934 101.834 108.869 102.052 108.848C102.27 108.828 102.49 108.851 102.696 108.916C103.153 109.069 103.549 109.334 103.833 109.679C104.118 110.025 104.279 110.434 104.296 110.857C104.37 111.331 104.332 111.812 104.183 112.272C104.034 112.733 103.779 113.162 103.431 113.534C103.013 113.865 102.535 114.135 102.015 114.333C101.764 114.439 101.501 114.534 101.237 114.618C100.898 114.687 100.573 114.796 100.268 114.941C100.134 114.992 100.026 115.082 99.9621 115.196C99.8985 115.31 99.8844 115.44 99.9222 115.562C99.96 115.684 100.047 115.791 100.168 115.862C100.289 115.934 100.435 115.965 100.581 115.952C101.23 115.91 101.859 115.74 102.42 115.454C103.024 115.221 103.59 114.923 104.106 114.566C105.012 113.831 105.549 112.818 105.602 111.746C105.688 111.223 105.654 110.69 105.499 110.178C105.344 109.667 105.073 109.187 104.7 108.768C104.359 108.388 103.904 108.097 103.384 107.926C102.864 107.755 102.299 107.712 101.752 107.8C101.167 107.919 100.653 108.22 100.308 108.646C99.9635 109.071 99.8119 109.591 99.8822 110.106C99.9619 110.545 100.783 110.434 100.777 110L100.796 109.974Z" fill="black"/>
<path d="M101.966 110.698C101.705 110.64 101.429 110.649 101.173 110.724C100.917 110.799 100.692 110.938 100.526 111.122C100.432 111.219 100.351 111.325 100.287 111.439C100.226 111.555 100.164 111.677 100.115 111.799C100.057 111.926 100.021 112.059 100.011 112.196C100.006 112.307 100.04 112.418 100.109 112.513C100.164 112.582 100.226 112.624 100.281 112.688L100.189 112.582V112.613L100.134 112.492C100.137 112.509 100.137 112.527 100.134 112.545V112.407C100.136 112.425 100.136 112.442 100.134 112.46V112.323C100.136 112.345 100.136 112.368 100.134 112.391L100.195 112.27L100.164 112.312L100.256 112.211L100.201 112.259L100.317 112.18L100.268 112.206L100.409 112.153H100.354H100.514C100.388 112.152 100.265 112.182 100.158 112.238C100.031 112.306 99.9377 112.411 99.8945 112.534C99.8724 112.598 99.8659 112.666 99.8754 112.732C99.8849 112.799 99.9102 112.863 99.9497 112.92C100.007 112.998 100.082 113.064 100.17 113.116C100.27 113.164 100.381 113.189 100.495 113.19C100.624 113.188 100.75 113.159 100.863 113.105C101.01 113.037 101.13 112.932 101.206 112.804C101.311 112.643 101.341 112.454 101.292 112.275C101.245 112.132 101.151 112.004 101.022 111.905L101.114 112.01C101.111 111.998 101.111 111.986 101.114 111.973L101.176 112.095V112.227V112.148V112.28C101.218 112.099 101.279 111.922 101.36 111.751L101.304 111.868L101.409 111.651L101.353 111.767C101.372 111.725 101.395 111.684 101.421 111.645C101.421 111.645 101.476 111.54 101.501 111.534C101.525 111.529 101.421 111.619 101.501 111.571L101.55 111.524C101.564 111.508 101.581 111.494 101.599 111.481C101.525 111.524 101.66 111.429 101.599 111.481L101.703 111.423H101.77H101.74H101.881C101.996 111.423 102.106 111.383 102.187 111.312C102.254 111.251 102.297 111.173 102.31 111.09C102.324 111 102.3 110.909 102.243 110.833C102.185 110.757 102.098 110.702 101.997 110.677L101.966 110.698ZM76.012 111.28C75.9369 111.269 75.8603 111.269 75.7852 111.28C75.6582 111.314 75.5426 111.374 75.4481 111.455L75.3868 111.508C75.3334 111.56 75.2862 111.617 75.2458 111.677C75.2062 111.738 75.1773 111.804 75.16 111.873C75.16 111.931 75.1599 111.995 75.1293 112.058C75.1348 112.122 75.145 112.186 75.16 112.248C75.1757 112.316 75.2047 112.38 75.2458 112.439C75.3323 112.559 75.4525 112.659 75.5952 112.73C75.6688 112.766 75.747 112.794 75.8281 112.814C75.9084 112.831 75.9907 112.84 76.0733 112.841C76.1455 112.837 76.2173 112.828 76.2879 112.814H76.3247C76.4604 112.778 76.5844 112.715 76.6863 112.629C76.7502 112.586 76.8007 112.53 76.8334 112.465C76.9053 112.357 76.9453 112.235 76.9499 112.111C76.9518 112.036 76.9415 111.961 76.9193 111.889C76.9219 111.878 76.9219 111.867 76.9193 111.857C76.9193 111.804 76.8702 111.741 76.8396 111.688C76.7969 111.623 76.7432 111.564 76.6802 111.513C76.5752 111.426 76.4467 111.362 76.3063 111.328C76.2332 111.318 76.1587 111.318 76.0856 111.328C75.9485 111.326 75.8133 111.356 75.6933 111.413L75.5461 111.513C75.4792 111.567 75.4287 111.634 75.399 111.709C75.3685 111.758 75.3517 111.812 75.35 111.868C75.3256 111.949 75.3256 112.035 75.35 112.116L75.4235 112.264L75.5339 112.391C75.5994 112.448 75.679 112.492 75.7668 112.518C75.8536 112.557 75.951 112.576 76.0488 112.571H75.8526H75.8894L75.7178 112.508L75.7668 112.534L75.6197 112.434C75.6368 112.442 75.6499 112.455 75.6565 112.471L75.5461 112.344V112.381L75.4726 112.233C75.4754 112.25 75.4754 112.268 75.4726 112.285V112.121V112.148V111.984V112.016L75.54 111.868L75.6504 111.746L75.7913 111.651H75.7546L75.9201 111.587H75.871H76.0611C76.039 111.592 76.0157 111.592 75.9936 111.587H76.1837C76.1597 111.593 76.1341 111.593 76.1101 111.587L76.2756 111.651L76.2143 111.619L76.3553 111.714L76.3124 111.677L76.4166 111.794C76.3996 111.774 76.3852 111.752 76.3737 111.73L76.4411 111.873V111.815V111.968C76.435 111.944 76.435 111.918 76.4411 111.894V112.042C76.4376 112.018 76.4376 111.993 76.4411 111.968L76.3798 112.095C76.3938 112.069 76.4102 112.044 76.4289 112.021L76.3369 112.127L76.435 112.021C76.4374 112 76.4374 111.979 76.435 111.958C76.4455 111.928 76.4599 111.9 76.4779 111.873L76.4166 111.995V111.963C76.466 111.888 76.492 111.803 76.492 111.717C76.492 111.631 76.466 111.546 76.4166 111.471C76.3669 111.401 76.2973 111.342 76.2143 111.302C76.1303 111.255 76.0322 111.231 75.9323 111.233L76.012 111.28ZM74.0872 109.741C74.2527 109.683 74.4244 109.64 74.5899 109.593L74.8657 109.529H76.1898L77.3116 109.556C77.5378 109.569 77.7652 109.553 77.9859 109.508C78.1912 109.462 78.367 109.348 78.475 109.19C78.583 109.033 78.6143 108.845 78.5621 108.667C78.5214 108.546 78.437 108.44 78.3211 108.364C78.2052 108.288 78.0641 108.246 77.9185 108.244C77.7621 108.234 77.606 108.265 77.471 108.334C77.471 108.334 77.612 108.334 77.6303 108.297C77.5795 108.302 77.528 108.302 77.4771 108.297H76.9499C76.576 108.297 76.202 108.297 75.8281 108.329C75.4386 108.353 75.0527 108.41 74.6757 108.498C74.2716 108.6 73.9002 108.781 73.5907 109.027C73.5089 109.1 73.4569 109.195 73.4425 109.296C73.4282 109.397 73.4522 109.499 73.511 109.588C73.5716 109.676 73.6646 109.745 73.7756 109.784C73.8865 109.822 74.0091 109.827 74.124 109.799L74.0872 109.741ZM90.3317 112.01V112.042L90.2704 111.92L90.3133 112.005C90.3277 112.049 90.3552 112.089 90.393 112.121L90.4482 112.185L90.3562 112.079C90.3761 112.102 90.3926 112.127 90.4053 112.153L90.344 112.026V112.1V111.952V112.026V111.873V111.931L90.4114 111.788C90.4002 111.812 90.3835 111.834 90.3624 111.852L90.4727 111.735L90.4298 111.772L90.5646 111.677L90.5095 111.709L90.675 111.645H90.6014H90.7915C90.7694 111.651 90.7461 111.651 90.724 111.645H90.9141H90.865L91.0305 111.709H90.9937L91.1347 111.804L91.2451 111.926L91.3186 112.074C91.3158 112.063 91.3158 112.053 91.3186 112.042V112.206C91.3125 112.193 91.3125 112.177 91.3186 112.164V112.328C91.3158 112.31 91.3158 112.292 91.3186 112.275L91.2451 112.423L91.2757 112.386L91.1593 112.513C91.1703 112.498 91.1849 112.485 91.2022 112.476L91.055 112.576L91.1041 112.55L90.9324 112.613H90.9692C91.0597 112.593 91.1436 112.555 91.2144 112.502C91.266 112.474 91.3099 112.436 91.3431 112.391C91.4042 112.33 91.4482 112.258 91.4719 112.18V111.852C91.4505 111.773 91.4062 111.7 91.3431 111.64C91.2899 111.574 91.221 111.518 91.1409 111.476C91.0229 111.419 90.8898 111.39 90.7547 111.391C90.6814 111.384 90.6073 111.384 90.534 111.391C90.3953 111.423 90.2685 111.485 90.1662 111.571C90.1069 111.618 90.0553 111.671 90.0129 111.73C89.9706 111.792 89.9357 111.858 89.9087 111.926C89.8875 111.997 89.8752 112.069 89.872 112.143C89.8566 112.214 89.8566 112.288 89.872 112.36C89.932 112.547 90.0751 112.707 90.2704 112.804C90.3396 112.842 90.4165 112.869 90.4972 112.883C90.5823 112.897 90.6695 112.897 90.7547 112.883C90.8354 112.879 90.9155 112.869 90.9937 112.852C91.0761 112.832 91.1545 112.801 91.2267 112.762C91.2955 112.724 91.3593 112.679 91.4167 112.629C91.5123 112.544 91.5836 112.441 91.6251 112.328C91.6744 112.185 91.6744 112.032 91.6251 111.889C91.6026 111.818 91.5696 111.751 91.5271 111.688C91.4808 111.625 91.4274 111.567 91.3677 111.513C91.293 111.446 91.2024 111.393 91.1019 111.358C91.0014 111.323 90.8934 111.308 90.7853 111.312C90.6855 111.31 90.5873 111.334 90.5033 111.381C90.4204 111.422 90.3508 111.48 90.3011 111.55C90.2498 111.625 90.2227 111.71 90.2227 111.796C90.2227 111.883 90.2498 111.968 90.3011 112.042L90.3317 112.01ZM93.2618 108.974C92.9648 108.73 92.6059 108.549 92.2136 108.445C91.8252 108.351 91.4268 108.291 91.0244 108.265C90.6627 108.233 90.3011 108.265 89.9394 108.233H89.259H89.3509C89.4735 108.233 89.2038 108.186 89.1854 108.18C89.1044 108.167 89.0212 108.167 88.9402 108.18C88.7943 108.181 88.6527 108.223 88.5366 108.299C88.4206 108.376 88.3363 108.483 88.2965 108.604C88.2476 108.766 88.2699 108.939 88.3593 109.088C88.4487 109.238 88.5988 109.353 88.7808 109.413C89.0106 109.484 89.2544 109.514 89.498 109.503L90.6505 109.476C91.0185 109.464 91.3871 109.473 91.7539 109.503H91.9255L92.2014 109.566C92.3791 109.614 92.5569 109.662 92.7347 109.72C93.2373 109.884 93.6358 109.244 93.2496 108.947L93.2618 108.974ZM80.9651 117.734C80.8172 117.864 80.7173 118.029 80.678 118.208C80.6387 118.387 80.6618 118.572 80.7444 118.739C80.9386 119.073 81.2585 119.34 81.6516 119.496C82.4168 119.897 83.3085 120.082 84.2017 120.025C84.6496 119.981 85.0925 119.905 85.5258 119.797C85.9362 119.72 86.3138 119.546 86.6169 119.295C86.7548 119.17 86.8606 119.022 86.9271 118.86C86.9937 118.697 87.0196 118.525 87.0031 118.353C86.9602 117.919 86.6108 117.427 86.0346 117.449C85.9176 117.451 85.8034 117.48 85.703 117.532C85.6026 117.584 85.5194 117.657 85.4615 117.745C85.4035 117.833 85.3728 117.932 85.3723 118.033C85.3717 118.134 85.4014 118.233 85.4584 118.321C85.4984 118.383 85.5478 118.44 85.6055 118.491C85.6055 118.522 85.6852 118.602 85.6055 118.491C85.5258 118.38 85.5687 118.395 85.6055 118.491C85.5626 118.358 85.6055 118.448 85.6055 118.491C85.6055 118.39 85.6055 118.533 85.6055 118.491V118.432C85.5687 118.48 85.5687 118.491 85.6055 118.459C85.5013 118.538 85.6422 118.427 85.6055 118.459C85.5669 118.483 85.5258 118.504 85.4829 118.522C85.4068 118.562 85.324 118.59 85.2377 118.607C85.1089 118.644 84.9741 118.671 84.8454 118.702C84.5917 118.762 84.3336 118.806 84.073 118.835C83.5392 118.888 82.9983 118.828 82.4976 118.66C82.2677 118.601 82.0489 118.514 81.8478 118.401C81.787 118.365 81.7417 118.313 81.719 118.253V118.205C81.7696 118.119 81.784 118.021 81.7597 117.928C81.7355 117.834 81.6742 117.751 81.5864 117.692C81.4986 117.633 81.3897 117.602 81.2785 117.605C81.1674 117.608 81.0608 117.644 80.9773 117.708L80.9651 117.734ZM86.3595 122.918C84.4537 123.043 82.5398 123.043 80.634 122.918C80.5566 122.903 80.4763 122.902 80.3983 122.914C80.3202 122.927 80.246 122.954 80.1804 122.992C80.0149 123.13 80.0946 123.368 80.1804 123.521C80.4984 124.036 80.9571 124.475 81.5167 124.801C82.0763 125.127 82.7198 125.33 83.3911 125.393C84.0625 125.455 84.7414 125.376 85.3688 125.16C85.9962 124.944 86.553 124.6 86.9909 124.156C87.2071 123.968 87.3414 123.722 87.3709 123.458C87.3724 123.33 87.3197 123.205 87.2227 123.108C87.1257 123.011 86.991 122.947 86.8437 122.929" fill="black"/>
<path d="M86.3595 122.522C84.7902 122.522 83.2026 122.469 81.6333 122.358C80.9406 122.31 79.9721 122.067 79.5184 122.696C79.1261 123.225 79.5184 123.86 79.9169 124.315C80.6834 125.211 81.8282 125.81 83.1031 125.982C84.3779 126.154 85.6801 125.886 86.7273 125.235C87.371 124.889 87.8511 124.357 88.0821 123.733C88.1402 123.561 88.1466 123.379 88.1006 123.203C88.0546 123.028 87.9578 122.866 87.8193 122.733C87.6807 122.599 87.505 122.497 87.3086 122.438C87.1122 122.379 86.9016 122.364 86.6967 122.395C86.194 122.495 86.0162 123.22 86.5434 123.416C86.7518 123.49 86.6967 123.511 86.5434 123.696C86.3428 123.92 86.1004 124.113 85.8262 124.267C85.2333 124.615 84.5323 124.799 83.8156 124.796C83.1559 124.779 82.5167 124.595 81.9766 124.267C81.7061 124.111 81.4625 123.922 81.2532 123.707C81.1552 123.609 81.067 123.505 80.9896 123.395C80.9529 123.347 80.91 123.231 80.8548 123.199C80.7996 123.167 80.9283 123.199 80.8548 123.289L80.5912 123.516C80.7361 123.507 80.8815 123.507 81.0264 123.516H83.3926C84.44 123.484 85.4841 123.395 86.5189 123.252C87.04 123.183 86.9051 122.469 86.3963 122.469L86.3595 122.522ZM71.3717 127.595C71.4391 128.351 71.7272 129.108 71.8682 129.854C72.0276 130.679 72.1318 131.504 72.1992 132.335C72.3341 133.922 72.3647 135.509 72.3954 137.133C72.3954 137.286 72.4658 137.432 72.5911 137.54C72.7164 137.649 72.8863 137.709 73.0636 137.709C73.2408 137.709 73.4107 137.649 73.536 137.54C73.6613 137.432 73.7317 137.286 73.7317 137.133C73.6766 135.472 73.6275 133.811 73.4068 132.155C73.2965 131.361 73.1616 130.568 72.9839 129.78C72.8535 128.958 72.5829 128.158 72.1808 127.404C72.1322 127.334 72.058 127.279 71.9698 127.248C71.8816 127.218 71.7842 127.213 71.6924 127.234C71.6006 127.256 71.5196 127.303 71.4616 127.368C71.4037 127.433 71.3721 127.513 71.3717 127.595ZM95.6649 127.674C95.0681 129.238 94.7397 130.869 94.6902 132.514C94.5827 134.152 94.669 135.796 94.9477 137.418C95.0457 138 96.2104 137.868 96.1369 137.281C95.929 135.701 95.8614 134.109 95.9346 132.52C96.0143 130.933 96.3453 129.346 96.5169 127.759C96.566 127.309 95.8242 127.288 95.6649 127.658V127.674ZM66.5903 110.688C67.9757 108.318 69.3856 105.869 69.6001 103.224C69.7043 101.996 69.6001 100.579 70.6483 99.7376C71.4636 99.0658 72.6958 98.9918 73.8237 98.9706C80.6218 98.8436 87.3955 101.261 96.0817 97.7804C97.3077 97.2831 96.2166 98.7484 96.3882 99.9493C96.7672 102.007 97.3601 104.03 98.1598 105.996C98.8218 107.461 99.9497 108.27 100.072 109.884C101.396 108.889 101.709 107.239 101.911 105.737C102.365 102.764 102.763 99.5366 101.022 96.9392C100.385 96.0678 99.6343 95.262 98.785 94.5376C96.5966 92.5274 94.2611 90.4854 91.2451 89.5809C89.4421 89.1157 87.5731 88.8682 85.6914 88.8455C83.04 88.6472 80.3737 88.6472 77.7224 88.8455C75.0569 89.0414 72.4964 89.8326 70.2928 91.1414C68.0186 92.5803 66.4493 94.6698 64.929 96.7118C64.3333 97.4327 63.8605 98.2237 63.5253 99.0605C63.3599 99.4796 63.2979 99.9238 63.3433 100.365C63.3887 100.806 63.5405 101.234 63.7889 101.621C64.126 102.081 64.6471 102.43 64.9536 102.906C65.2138 103.379 65.3657 103.891 65.4011 104.414L66.0141 108.847" fill="black"/>
<path d="M66.9702 110.878C67.9866 109.356 68.8559 107.763 69.5693 106.117C69.8846 105.338 70.1005 104.53 70.213 103.71C70.2463 102.879 70.3384 102.051 70.4888 101.229C70.9853 99.4519 73.186 99.5471 74.9085 99.5789C76.6311 99.6106 78.1942 99.7534 79.8125 99.9016C83.3557 100.224 86.8927 100.468 90.4297 99.9386C91.3896 99.7943 92.3377 99.5964 93.2679 99.3461C93.7154 99.2244 94.1568 99.0922 94.5981 98.9494C94.874 98.8594 95.1437 98.7642 95.4134 98.6637C95.6831 98.5632 96.29 98.4468 96.4003 98.2987L95.9896 97.9654V98.0977C95.9425 98.2122 95.9117 98.3312 95.8977 98.4521C95.808 98.7797 95.7425 99.1119 95.7015 99.4466C95.6842 100.025 95.7564 100.604 95.9161 101.166C96.2407 102.647 96.6768 104.108 97.2218 105.541C97.4917 106.248 97.8472 106.929 98.2822 107.572C98.8401 108.271 99.2108 109.067 99.3673 109.905C99.3706 110.026 99.4148 110.144 99.4945 110.244C99.5742 110.344 99.6859 110.422 99.816 110.468C99.946 110.514 100.089 110.526 100.227 110.503C100.365 110.48 100.492 110.423 100.593 110.339C102.273 108.995 102.5 106.953 102.769 105.102C103.07 103.017 103.272 100.87 102.677 98.7959C102.064 96.627 100.385 95.0559 98.65 93.4795C97.0543 91.9038 95.1623 90.5714 93.0534 89.5384C90.6381 88.4804 87.9593 88.3165 85.2928 88.1789C82.5048 87.969 79.6993 88.0027 76.9192 88.2794C74.4589 88.5434 72.1061 89.3066 70.0536 90.5065C68.1284 91.7956 66.4915 93.3767 65.2231 95.1723C63.85 96.955 61.87 99.1715 62.8815 101.436C63.1281 101.911 63.4682 102.346 63.8868 102.721C64.3529 103.198 64.6299 103.791 64.6776 104.414C64.8921 105.89 65.0822 107.366 65.2906 108.847C65.407 109.688 66.9579 109.699 66.8353 108.847L66.3572 105.456C66.2223 104.509 66.2101 103.43 65.6584 102.578C65.1067 101.727 64.2056 101.293 64.1381 100.272C64.0707 99.2509 64.6837 98.341 65.2844 97.5105C66.4062 95.8352 67.7338 94.2692 69.2444 92.8394C70.8357 91.4388 72.8345 90.4338 75.0312 89.9299C77.4145 89.429 79.8705 89.2347 82.3197 89.3533C84.8453 89.4168 87.5241 89.4274 89.9884 89.9405C92.1668 90.4631 94.1585 91.4489 95.7812 92.8077C97.4302 94.1037 99.2998 95.5743 100.428 97.246C101.697 99.1398 101.721 101.409 101.513 103.525C101.329 105.424 101.31 108.053 99.5695 109.445L100.796 109.879C100.624 108.228 99.3918 107.096 98.7543 105.594C98.196 104.222 97.7495 102.819 97.4179 101.393C97.2268 100.809 97.1137 100.207 97.0808 99.6C97.0808 99.0128 97.4302 98.4309 97.3689 97.849C97.3638 97.7306 97.3277 97.6148 97.2632 97.5102C97.1987 97.4056 97.1075 97.315 96.9966 97.2452C96.8856 97.1754 96.7577 97.1283 96.6226 97.1073C96.4875 97.0864 96.3486 97.0922 96.2164 97.1243C95.7376 97.2696 95.2723 97.4464 94.8249 97.6533C94.2119 97.8702 93.5989 98.0606 92.9491 98.2299C89.0627 99.2879 85.0782 99.1927 81.0753 98.8383C79.2363 98.6796 77.3973 98.4785 75.5583 98.4098C73.9155 98.3516 71.8803 98.2193 70.4766 99.1186C68.6376 100.298 69.1218 102.536 68.7969 104.239C68.2671 106.418 67.3947 108.523 66.2039 110.497C65.9649 110.931 66.6882 111.317 66.9641 110.878H66.9702ZM70.9915 136.064C74.7322 140.371 79.2749 144.112 84.4346 147.136C84.5648 147.2 84.7155 147.225 84.8638 147.207C85.0121 147.19 85.1498 147.132 85.256 147.041C89.6635 143.867 93.9177 140.238 97.1482 136.122C97.4976 135.678 96.6884 135.128 96.2777 135.54C94.4387 137.424 92.5997 139.344 90.6014 141.132C88.6099 142.925 86.5041 144.62 84.2936 146.21L85.1211 146.12C80.1439 143.129 75.6589 139.57 71.7884 135.54C71.4206 135.165 70.6482 135.673 70.9915 136.069V136.064ZM157.541 193.164C155.947 191.355 153.667 189.99 151.411 188.821C150.271 188.24 149.088 187.726 147.868 187.282C146.856 186.911 145.146 186.15 144.19 186.938C144.104 187.017 144.046 187.117 144.024 187.224C144.001 187.331 144.015 187.442 144.064 187.542C144.112 187.643 144.193 187.729 144.297 187.791C144.401 187.852 144.523 187.887 144.65 187.89C144.907 187.89 145.158 187.843 145.416 187.864C145.684 187.904 145.947 187.967 146.2 188.054C146.777 188.225 147.348 188.412 147.911 188.615C150.086 189.393 152.144 190.395 154.041 191.598C155.052 192.199 155.998 192.877 156.867 193.624C157.198 193.926 157.866 193.513 157.559 193.164H157.541ZM150.798 203.342C149.339 203.004 147.99 202.454 146.507 202.284C145.103 202.104 143.699 202.057 142.314 201.755C139.609 201.205 137.091 200.119 134.958 198.581C134.265 198.079 133.26 198.941 133.959 199.443C136.14 201.025 138.704 202.165 141.462 202.781C142.839 203.074 144.245 203.251 145.661 203.31C147.353 203.406 148.928 203.839 150.602 204.062C151.135 204.125 151.386 203.464 150.835 203.337L150.798 203.342ZM65.83 111.952C65.1251 112.301 64.4324 113.01 64.7511 113.73C64.8056 113.881 64.899 114.02 65.0243 114.137C65.1496 114.253 65.3036 114.344 65.475 114.401C65.6463 114.459 65.8305 114.483 66.014 114.471C66.1975 114.459 66.3756 114.412 66.535 114.333L65.5296 113.666C64.8667 116.234 64.3593 118.829 64.0094 121.442C63.8357 122.802 63.7539 124.169 63.7642 125.537C63.7642 126.595 63.7642 127.706 64.5795 128.579C65.6339 129.721 69.4161 131.605 70.2436 129.335C70.3126 129.123 70.3294 128.9 70.293 128.681C70.2566 128.463 70.1678 128.253 70.0322 128.066C69.8966 127.879 69.7173 127.718 69.5056 127.594C69.294 127.47 69.0547 127.386 68.8031 127.346C67.5096 127.172 67.1541 128.69 67.9755 129.325C68.4904 129.727 69.5203 129.489 69.459 128.796C69.4487 128.521 69.3972 128.249 69.3057 127.986C69.0728 127.404 67.8713 127.246 67.7426 127.986C67.7026 128.255 67.7026 128.527 67.7426 128.796L69.2199 128.267V128.579L68.3924 128.764C68.7356 128.811 68.8031 128.997 68.3924 129.018C68.0017 128.974 67.627 128.857 67.2951 128.674C66.6536 128.453 66.0925 128.088 65.6706 127.616C65.2293 127.023 65.309 126.203 65.2967 125.526C65.2967 124.759 65.2967 123.987 65.3703 123.22C65.6737 120.115 66.1709 117.026 66.8599 113.968C66.9457 113.513 66.394 112.984 65.8545 113.301C66.0809 113.099 66.2861 112.879 66.4675 112.645C66.5464 112.568 66.592 112.469 66.5965 112.366C66.601 112.262 66.5642 112.161 66.4923 112.078C66.4203 111.996 66.3177 111.937 66.2016 111.912C66.0854 111.887 65.9629 111.898 65.8545 111.942L65.83 111.952Z" fill="black"/>
<path d="M191.391 135.895L190.778 133.969C190.312 132.451 192.084 131.033 193.733 131.689C193.755 131.695 193.775 131.704 193.794 131.716C194.09 131.839 194.345 132.024 194.537 132.254C194.728 132.484 194.85 132.752 194.891 133.033C195.001 133.842 194.438 134.149 193.923 134.472C191.14 136.191 189.172 138.704 187.247 141.143C174.657 157.102 161.116 172.486 146.679 187.234" fill="black"/>
<path d="M191.832 135.789C191.569 134.768 190.747 133.144 191.949 132.388C192.148 132.248 192.386 132.154 192.639 132.116C192.892 132.077 193.152 132.094 193.395 132.165C193.55 132.208 193.694 132.277 193.817 132.367C193.941 132.458 194.043 132.569 194.116 132.694C194.19 132.819 194.234 132.956 194.246 133.096C194.258 133.236 194.238 133.376 194.186 133.509C193.99 133.858 193.401 134.091 193.058 134.318C192.519 134.677 192.005 135.064 191.519 135.477C189.684 137.158 188.042 138.988 186.615 140.942C184.887 143.125 183.142 145.299 181.38 147.464C174.311 156.133 166.955 164.627 159.312 172.946C155.021 177.615 150.647 182.225 146.188 186.774C145.575 187.409 146.623 188.324 147.249 187.689C155.908 178.83 164.245 169.742 172.259 160.425C176.293 155.745 180.236 151.008 184.09 146.216C185.929 143.93 187.694 141.597 189.576 139.339C190.456 138.263 191.436 137.251 192.506 136.313C193.007 135.882 193.539 135.479 194.1 135.107C194.574 134.862 194.99 134.543 195.326 134.165C196.05 133.16 195.406 131.816 194.278 131.271C193.757 131.017 193.152 130.92 192.56 130.997C191.967 131.073 191.422 131.319 191.011 131.695C189.619 132.991 190.471 134.556 190.98 136.001C191.013 136.101 191.09 136.186 191.195 136.237C191.3 136.288 191.425 136.301 191.541 136.273C191.657 136.245 191.756 136.178 191.815 136.087C191.874 135.997 191.889 135.889 191.857 135.789H191.832ZM116.758 215.911C120.013 213.499 123.213 211.023 126.364 208.505C127.941 207.246 129.5 205.973 131.041 204.686C131.777 204.072 132.508 203.455 133.235 202.835C133.616 202.512 133.989 202.179 134.363 201.845L134.976 201.316C135.105 201.2 135.338 200.883 135.491 200.84L134.86 200.756L134.958 200.814L134.541 200.195V200.274L135.154 199.592L135.516 199.639C135.386 199.514 135.207 199.436 135.014 199.42C134.82 199.404 134.627 199.451 134.473 199.553C134.318 199.654 134.213 199.802 134.179 199.967C134.145 200.132 134.185 200.302 134.29 200.443C134.413 200.635 134.603 200.79 134.833 200.884C135.062 200.979 135.32 201.01 135.571 200.972C135.709 200.941 135.834 200.878 135.935 200.791C136.035 200.704 136.106 200.594 136.141 200.475C136.192 200.302 136.178 200.118 136.101 199.952C136.024 199.786 135.888 199.645 135.712 199.549C135.536 199.454 135.33 199.409 135.123 199.422C134.916 199.434 134.718 199.503 134.56 199.618C134.129 199.928 133.733 200.271 133.376 200.644C132.935 201.036 132.494 201.427 132.058 201.824C130.354 203.383 128.628 204.926 126.879 206.453C123.38 209.503 119.79 212.469 116.108 215.351C115.655 215.705 116.317 216.271 116.776 215.927L116.758 215.911ZM71.96 132.906C70.544 133.52 69.1647 134.207 67.8222 134.927C66.7372 135.509 65.8729 136.207 65.6829 137.339C65.2967 139.667 66.0936 142.243 67.0376 144.401C68.1115 146.705 69.3988 148.931 70.8872 151.056C71.5002 151.971 72.1132 152.982 73.1186 153.6C74.1443 154.165 75.3877 154.355 76.5759 154.129C77.8608 153.857 79.0536 153.328 80.0577 152.585C81.2837 151.77 82.4362 150.892 83.6192 150.035C83.9687 149.786 84.0177 149.58 84.4039 149.834L85.213 150.363L87.1746 151.685C88.278 152.431 89.3876 153.378 90.6994 153.844C91.2522 154.05 91.8671 154.098 92.4539 153.981C93.0408 153.864 93.5688 153.588 93.9606 153.193C94.9519 152.303 95.8812 151.364 96.7436 150.379C98.4876 148.436 100.02 146.359 101.323 144.174C102.015 143.015 102.916 141.73 102.72 140.375C102.431 139.105 101.87 137.892 101.065 136.799C100.357 135.708 99.5208 134.681 98.5703 133.737C97.7121 132.885 96.6394 131.647 95.1682 131.917C94.4448 132.049 94.5919 133.118 95.3459 133.049C95.916 132.996 96.3513 133.477 96.7191 133.8C97.0869 134.123 97.5834 134.588 97.988 135.011C98.7183 135.79 99.3685 136.622 99.9312 137.498C100.594 138.408 101.075 139.407 101.353 140.455C101.549 141.539 100.704 142.655 100.127 143.587C98.9654 145.513 97.6182 147.351 96.0999 149.083C95.3521 149.94 94.5648 150.771 93.7399 151.574C93.3782 151.965 92.9669 152.32 92.5139 152.632C91.8641 153.019 91.1775 152.744 90.5768 152.416C89.4795 151.812 88.4742 151.035 87.4444 150.342L85.8322 149.247C85.4415 148.913 84.9874 148.639 84.4897 148.437C83.417 148.141 82.3749 149.279 81.6515 149.797C80.6523 150.511 79.6777 151.273 78.5865 151.913C77.6422 152.563 76.4717 152.919 75.2641 152.923C74.0381 152.86 73.3331 152.193 72.7385 151.336C71.4604 149.529 70.3021 147.66 69.2689 145.74C68.0157 143.551 67.2761 141.171 67.0928 138.736C67.0006 138.131 67.0784 137.516 67.3196 136.942C67.6621 136.476 68.1396 136.095 68.705 135.837C69.9923 135.096 71.2796 134.345 72.4994 133.525C72.9285 133.234 72.383 132.721 71.9539 132.906H71.96ZM148.855 193.138C150.404 193.642 151.873 194.314 153.225 195.138C153.885 195.543 154.514 195.985 155.107 196.46C155.72 196.947 156.235 197.56 156.897 197.994C157.388 198.312 157.97 197.709 157.7 197.301C157.192 196.689 156.571 196.153 155.861 195.714C155.189 195.22 154.481 194.764 153.74 194.349C152.284 193.536 150.712 192.889 149.063 192.424C148.524 192.27 148.315 192.979 148.83 193.143L148.855 193.138ZM147.243 196.143C147.887 196.556 148.592 196.894 149.339 197.148C150.75 197.7 152.047 198.449 153.176 199.364C153.458 199.597 153.734 199.84 153.998 200.094C154.261 200.348 154.5 200.666 154.795 200.904C154.886 200.972 155.001 201.012 155.122 201.016C155.242 201.02 155.361 200.989 155.459 200.928C155.556 200.867 155.627 200.778 155.659 200.678C155.691 200.577 155.682 200.47 155.634 200.375C155.195 199.776 154.649 199.24 154.016 198.788C153.421 198.315 152.783 197.884 152.11 197.497C151.458 197.121 150.771 196.792 150.056 196.513C149.254 196.267 148.487 195.945 147.77 195.55C147.383 195.296 146.869 195.868 147.243 196.143ZM144.735 198.804C146.232 199.281 147.652 199.923 148.959 200.713C149.588 201.098 150.186 201.518 150.749 201.972C151.299 202.499 151.882 202.999 152.496 203.469C152.992 203.787 153.587 203.184 153.305 202.771C152.819 202.171 152.217 201.647 151.527 201.221C150.883 200.751 150.205 200.317 149.498 199.92C148.091 199.134 146.568 198.516 144.968 198.084C144.429 197.936 144.22 198.64 144.735 198.804Z" fill="black"/>
<path d="M66.3512 139.476C58.2106 138.921 51.5289 139.831 43.7376 141.968C40.0596 142.983 36.3816 144.327 33.4086 146.475C26.782 151.236 24.5507 159.171 23.4228 166.54C21.3776 179.972 21.6918 193.594 24.3546 206.945C24.9676 210.087 25.7461 213.24 27.2786 216.139C32.2929 225.661 44.933 230.893 57.0459 231.147C69.1587 231.401 80.8732 227.534 91.8336 223.069C106.656 217.028 120.847 209.77 133.702 200.988C134.185 197.496 133.898 193.956 132.856 190.556C132.648 189.595 132.134 188.703 131.372 187.98C129.705 186.626 127.044 187.065 124.831 187.573C103.25 192.578 81.266 196.189 59.0626 198.375C56.819 198.597 53.7847 199.872 54.7165 201.65L52.7549 174.041" fill="black"/>
<path d="M66.351 139.095C63.4702 138.808 60.566 138.737 57.671 138.884C54.9125 139.061 52.1731 139.415 49.4752 139.942C44.1175 140.968 38.4412 142.412 33.9356 145.258C25.6601 150.522 23.5146 159.8 22.3744 168.084C20.8879 178.762 20.8879 189.554 22.3744 200.232C22.7422 202.877 23.1897 205.522 23.7414 208.119C24.2146 210.621 24.9785 213.076 26.0218 215.446C27.7879 219.174 30.6279 222.452 34.2728 224.968C41.7452 230.115 51.4919 232.268 60.975 231.797C72.8121 231.21 83.9564 227.121 94.4816 222.693C104.975 218.33 115.06 213.272 124.647 207.564C127.058 206.118 129.427 204.626 131.752 203.088C132.285 202.739 132.813 202.385 133.34 202.03C133.867 201.676 134.376 201.427 134.461 200.74C134.637 199.412 134.696 198.075 134.639 196.74C134.618 194.238 134.136 191.754 133.211 189.382C132.846 188.436 132.115 187.628 131.14 187.095C130.165 186.561 129.006 186.333 127.859 186.451C126.669 186.538 125.492 186.73 124.347 187.023C122.808 187.377 121.282 187.721 119.737 188.081C116.75 188.744 113.76 189.377 110.769 189.98C104.684 191.207 98.5662 192.329 92.4158 193.344C86.2654 194.36 80.1497 195.257 74.0687 196.037C70.9424 196.439 67.8141 196.811 64.6837 197.153C63.1083 197.328 61.5267 197.492 59.9513 197.65C58.8153 197.723 57.6968 197.933 56.6289 198.275C54.9983 198.862 53.2022 200.131 53.9868 201.835C54.2811 202.454 55.5255 202.454 55.4703 201.66C54.8144 192.466 54.1033 183.272 53.4474 174.078C53.3922 173.311 52.0068 173.306 52.062 174.078C52.7118 183.272 53.288 192.466 53.9623 201.66L55.4397 201.486C54.5385 199.539 58.9154 199.052 60.2456 198.92C63.4209 198.603 66.5901 198.25 69.7532 197.862C76.1979 197.097 82.618 196.215 89.0137 195.217C95.4093 194.219 101.731 193.101 107.98 191.863C111.176 191.239 114.361 190.581 117.537 189.89C120.51 189.25 123.464 188.435 126.468 187.911C127.737 187.695 129.239 187.552 130.397 188.155C131.795 188.853 132.095 190.44 132.408 191.699C133.192 194.747 133.377 197.887 132.953 200.988L133.168 200.544C120.43 209.246 106.362 216.414 91.6802 222.397C77.9674 227.967 62.1459 232.977 46.9312 229.046C40.8502 227.459 35.131 224.561 31.1219 220.254C26.1873 214.964 25.1391 207.897 24.1583 201.359C23.0553 193.97 22.6617 186.516 22.9813 179.072C23.1407 175.397 23.4758 171.729 23.9866 168.069C24.3691 164.98 25.0145 161.919 25.9176 158.912C26.7455 156.107 28.0731 153.43 29.853 150.977C31.8224 148.37 34.5292 146.24 37.7178 144.787C41.1751 143.2 45.0003 142.232 48.7518 141.381C52.5649 140.533 56.4667 140.018 60.3988 139.841C62.3549 139.751 64.3152 139.751 66.2714 139.841C66.8476 139.868 66.8292 139.132 66.2714 139.079L66.351 139.095Z" fill="black"/>
<path d="M53.9993 172.089C54.1382 181.696 54.3201 191.304 54.5448 200.914C54.5449 201.008 54.5735 201.099 54.6279 201.18C54.6823 201.261 54.7604 201.328 54.8545 201.374C54.9485 201.42 55.055 201.444 55.1632 201.443C55.2714 201.442 55.3774 201.417 55.4705 201.369C64.8494 197.016 75.6995 196.005 86.053 194.709L95.8978 193.482C96.6702 193.387 96.3392 192.376 95.5729 192.471C89.8843 193.18 84.1956 193.863 78.5131 194.587C73.2447 195.191 68.0416 196.162 62.9552 197.492C60.1559 198.262 57.4434 199.25 54.8513 200.443L55.7708 200.898C55.542 191.285 55.2621 181.676 54.931 172.073C54.931 171.967 54.8819 171.864 54.7946 171.789C54.7072 171.713 54.5887 171.671 54.4651 171.671C54.3416 171.671 54.2231 171.713 54.1357 171.789C54.0484 171.864 53.9993 171.967 53.9993 172.073V172.089ZM104.97 192.027L105.51 191.149C105.574 191.049 105.592 190.932 105.559 190.821C105.524 190.714 105.443 190.623 105.332 190.567C105.275 190.538 105.212 190.519 105.147 190.512C105.082 190.505 105.015 190.509 104.952 190.525C104.89 190.539 104.832 190.563 104.782 190.597C104.731 190.631 104.689 190.673 104.658 190.72L104.161 191.62C104.101 191.713 104.086 191.823 104.118 191.927C104.133 191.978 104.159 192.025 104.196 192.067C104.233 192.109 104.28 192.144 104.333 192.17C104.437 192.217 104.558 192.229 104.672 192.203C104.785 192.176 104.883 192.113 104.946 192.027H104.97ZM110.438 191.736C110.552 191.736 110.661 191.697 110.742 191.628C110.822 191.558 110.867 191.464 110.867 191.366C110.867 191.268 110.822 191.173 110.742 191.104C110.661 191.035 110.552 190.996 110.438 190.996C110.324 190.996 110.215 191.035 110.135 191.104C110.054 191.173 110.009 191.268 110.009 191.366C110.009 191.464 110.054 191.558 110.135 191.628C110.215 191.697 110.324 191.736 110.438 191.736ZM115.459 189.382C118.217 188.938 120.976 188.573 123.783 188.324C125.126 188.197 126.468 188.086 127.817 188.001C128.601 187.954 131.372 187.472 131.194 188.705C131.109 189.313 132.341 189.461 132.42 188.853C132.604 187.732 131.648 186.97 130.404 186.853C129.629 186.818 128.853 186.852 128.086 186.954C127.191 187.028 126.296 187.107 125.402 187.203C121.977 187.555 118.577 188.045 115.201 188.673C114.649 188.779 114.889 189.483 115.434 189.398L115.459 189.382Z" fill="white"/>
<path d="M123.514 168.386C124.535 174.818 125.049 181.303 125.052 187.795L126.425 187.631L126.235 187.102C125.996 186.388 124.85 186.7 124.973 187.404L125.077 187.975C125.193 188.657 126.45 188.504 126.45 187.816C126.366 181.244 125.657 174.689 124.329 168.217C124.237 167.741 123.415 167.947 123.495 168.418L123.514 168.386Z" fill="white"/>
<path d="M47.3357 227.47C41.2548 251.099 36.3712 274.92 32.685 298.933C29.007 322.879 26.5346 346.932 25.2677 371.093C24.197 391.619 24.0029 412.161 24.6854 432.722C25.0471 443.625 25.2371 455.654 17.1026 464.007C16.4028 464.607 15.8577 465.328 15.5027 466.123C12.8238 474.111 41.2487 471.191 45.699 470.286C48.0897 469.794 48.764 468.414 49.1809 466.329C56.6227 426.654 71.6167 387.328 72.3768 346.876C72.6833 330.551 70.1577 314.972 76.3674 299.149C81.8844 285.083 89.0013 271.308 93.605 256.999C96.6058 247.642 97.4144 237.862 95.9834 228.232" fill="black"/>
<path d="M46.8884 227.375C41.821 246.292 37.6342 265.368 34.3281 284.602C30.9811 303.699 28.4106 322.879 26.6165 342.141C24.8184 361.538 23.7967 380.986 23.5515 400.485C23.4371 410.275 23.5229 420.067 23.809 429.86C24.0419 437.795 24.6611 445.984 22.2397 453.739C21.0797 457.491 18.988 460.98 16.1097 463.965C14.7427 465.398 13.86 467.297 15.1412 469.001C16.1342 470.281 17.9487 470.921 19.6161 471.339C22.0738 471.888 24.599 472.181 27.1376 472.212C32.3071 472.344 37.4801 472.085 42.5974 471.44C44.3445 471.228 46.49 471.117 47.9244 470.154C49.1504 469.345 49.6163 468.091 49.8921 466.842C50.3887 464.552 50.7749 462.245 51.2469 459.966C55.0475 441.546 60.1783 423.359 64.5183 405.039C68.8584 386.72 72.377 368.3 73.0268 349.669C73.3455 340.507 72.6467 331.35 72.9103 322.161C72.992 317.62 73.4715 313.092 74.3447 308.613C75.3685 304.037 76.8389 299.544 78.7399 295.182C82.4179 286.342 86.5128 277.651 90.0988 268.79C93.6174 260.078 96.6395 251.27 97.3138 242.018C97.6473 237.415 97.477 232.796 96.805 228.221C96.6763 227.327 95.0335 227.317 95.1622 228.221C96.5253 237.409 95.8513 246.737 93.1761 255.708C90.5218 264.553 86.7151 273.133 82.9758 281.671C79.2365 290.209 74.9148 298.816 73.0022 307.841C71.1632 316.464 71.2858 325.25 71.5004 333.979C71.8111 343.036 71.582 352.101 70.8138 361.138C69.9372 370.337 68.4477 379.489 66.6087 388.577C62.9307 406.716 57.9224 424.623 53.5579 442.641C52.4872 447.081 51.4655 451.524 50.4929 455.972C50.0025 458.229 49.5325 460.491 49.083 462.759C48.7336 464.504 48.7397 466.79 47.667 468.35C46.6739 469.805 44.2035 469.879 42.4442 470.091C40.1025 470.376 37.7486 470.572 35.3947 470.704C30.3436 470.995 24.8204 471.233 19.9103 469.985C18.5127 469.625 16.5756 469.006 16.1833 467.625C15.8768 466.541 16.6246 465.583 17.4093 464.779C18.7424 463.418 19.9188 461.947 20.9218 460.389C25.0105 453.834 25.6419 446.132 25.6296 438.832C25.6296 429.839 25.1392 420.804 25.0963 411.784C25.0187 392.705 25.697 373.634 27.1315 354.573C28.5659 335.511 30.74 316.494 33.6538 297.52C36.5717 278.635 40.2803 259.855 44.559 241.161C45.593 236.618 46.678 232.093 47.8141 227.586C47.9367 227.057 47.0478 226.867 46.913 227.375H46.8884ZM221.753 176.612C222.8 174.566 224.129 172.637 225.713 170.867C226.516 169.947 227.374 169.058 228.238 168.169C229.015 167.261 229.921 166.442 230.936 165.73C232.033 165.134 233.288 164.788 234.583 164.725C235.573 164.554 236.594 164.574 237.574 164.784C238.892 165.191 238.39 166.371 237.421 166.9C236.453 167.429 235.043 167.402 234.356 168.164C234.048 168.635 233.887 169.167 233.89 169.709C233.549 171.541 232.667 173.266 231.328 174.718C230.844 175.284 231.941 176.019 232.468 175.48C233.365 174.551 234.078 173.5 234.577 172.369C234.843 171.79 235.048 171.192 235.19 170.581C235.312 170.052 235.22 169.031 235.803 168.756C236.385 168.481 237.084 168.37 237.685 168.116C238.258 167.888 238.76 167.545 239.15 167.116C239.519 166.741 239.729 166.267 239.743 165.774C239.758 165.282 239.577 164.799 239.229 164.408C238.862 164.099 238.425 163.861 237.944 163.707C237.464 163.553 236.952 163.487 236.44 163.514C235.119 163.497 233.801 163.636 232.523 163.927C229.581 164.604 227.785 166.91 226.013 168.878C223.878 171.116 222.163 173.629 220.931 176.326C220.76 176.739 221.544 177.04 221.759 176.628L221.753 176.612Z" fill="black"/>
<path d="M239.285 166.032C239.635 165.938 239.976 165.817 240.302 165.672C240.652 165.55 240.989 165.418 241.338 165.307C241.992 165.092 242.661 164.915 243.343 164.778C244.017 164.643 244.701 164.544 245.39 164.482C246.138 164.413 246.88 164.44 247.627 164.413C247.788 164.4 247.937 164.335 248.046 164.232C248.154 164.129 248.214 163.994 248.214 163.855C248.214 163.716 248.154 163.581 248.046 163.478C247.937 163.375 247.788 163.31 247.627 163.297C246.071 163.199 244.506 163.348 243.012 163.736C242.29 163.912 241.583 164.131 240.897 164.392C240.149 164.611 239.459 164.956 238.868 165.408C238.804 165.466 238.764 165.54 238.753 165.62C238.742 165.7 238.762 165.78 238.809 165.85C238.856 165.919 238.928 165.973 239.014 166.004C239.099 166.035 239.194 166.041 239.285 166.021V166.032ZM249.111 166.889C248.172 166.696 247.193 166.696 246.254 166.889C245.299 167.063 244.403 167.425 243.637 167.947C243.146 168.28 243.784 169.005 244.305 168.698C244.982 168.285 245.734 167.972 246.53 167.772C247.334 167.614 248.162 167.568 248.982 167.635C249.473 167.666 249.565 167.005 249.099 166.899L249.111 166.889ZM249.687 170.703C248.778 170.71 247.874 170.827 247.002 171.052C246.562 171.164 246.13 171.3 245.709 171.459C245.264 171.595 244.849 171.796 244.483 172.052C244.394 172.129 244.337 172.23 244.321 172.339C244.304 172.447 244.33 172.557 244.393 172.651C244.457 172.746 244.555 172.82 244.672 172.861C244.789 172.903 244.918 172.911 245.041 172.882C245.448 172.725 245.845 172.549 246.23 172.353C246.591 172.195 246.964 172.057 247.346 171.941C248.142 171.699 248.963 171.522 249.798 171.412C250.294 171.348 250.159 170.676 249.687 170.676V170.703ZM249.657 174.734C243.067 178.738 236.005 181.944 228.036 183.452C227 183.653 227.423 185.039 228.477 184.832C236.367 183.161 244.133 180.098 250.165 175.31C250.527 175.025 250.043 174.464 249.632 174.713L249.657 174.734Z" fill="black"/>
<path d="M25.7766 448.751C30.6499 449.227 35.5539 449.703 40.4579 450.179L47.7097 450.846C48.6844 450.936 52.3991 451.692 51.921 449.856C51.8991 449.716 51.8134 449.589 51.6829 449.503C51.5525 449.417 51.3878 449.38 51.2253 449.399C51.0627 449.418 50.9155 449.492 50.816 449.604C50.7166 449.717 50.6731 449.859 50.695 449.999C50.695 449.835 50.7563 449.925 50.4682 449.946C50.2628 449.948 50.0577 449.933 49.8552 449.904L48.194 449.772L45.1719 449.523L38.6741 448.994C34.3831 448.645 30.0921 448.322 25.8011 447.994C25.2187 447.952 25.231 448.724 25.8011 448.777L25.7766 448.751ZM40.4579 309.523C43.9541 310.631 47.8158 310.504 51.2038 309.169C51.7678 308.947 51.2774 308.238 50.7195 308.449C47.5371 309.622 43.9675 309.748 40.6847 308.804C40.1514 308.65 39.943 309.333 40.4579 309.523ZM41.7146 318.135H47.8936C48.0155 318.135 48.1325 318.094 48.2187 318.019C48.3049 317.945 48.3533 317.844 48.3533 317.739C48.3533 317.633 48.3049 317.532 48.2187 317.458C48.1325 317.384 48.0155 317.342 47.8936 317.342H41.7146C41.5959 317.342 41.4821 317.383 41.3981 317.455C41.3142 317.527 41.2671 317.626 41.2671 317.728C41.2671 317.83 41.3142 317.929 41.3981 318.001C41.4821 318.073 41.5959 318.114 41.7146 318.114V318.135Z" fill="#FFC549"/>
<path d="M128.522 227.47C134.611 251.099 139.496 274.92 143.178 298.933C146.856 322.879 149.327 346.932 150.59 371.093C151.664 391.619 151.869 412.161 151.203 432.722C150.835 443.625 150.645 455.654 158.785 464.007C159.483 464.609 160.028 465.329 160.385 466.123C163.058 474.111 134.639 471.191 130.189 470.286C127.792 469.794 127.124 468.414 126.707 466.329C119.265 426.654 104.265 387.328 103.505 346.876C103.199 330.551 105.724 314.972 99.5205 299.149C94.0035 285.083 86.8805 271.308 82.283 256.999C79.2832 247.641 78.4726 237.862 79.8984 228.232" fill="black"/>
<path d="M128.074 227.586C132.641 246.101 136.656 264.764 139.899 283.507C143.209 302.48 145.767 321.542 147.574 340.692C149.368 359.701 150.412 378.745 150.706 397.824C150.849 407.378 150.802 416.928 150.565 426.474C150.369 434.447 149.645 442.546 151.178 450.449C151.821 453.979 153.143 457.393 155.089 460.547C156.116 462.095 157.304 463.559 158.638 464.922C159.38 465.71 160.048 466.7 159.668 467.742C159.184 469.075 157.271 469.662 155.88 470.011C153.476 470.547 151.006 470.828 148.524 470.847C143.458 470.975 138.39 470.719 133.376 470.08C131.476 469.847 129.012 469.763 128.08 468.075C127.148 466.388 127.136 464.303 126.781 462.531C126.331 460.267 125.859 458.005 125.365 455.744C121.435 437.658 116.366 419.772 112.167 401.733C107.968 383.694 104.572 365.502 104.21 347.109C104.038 338.206 104.743 329.297 104.351 320.394C104.196 316.033 103.661 311.688 102.751 307.397C101.666 302.905 100.169 298.496 98.2761 294.209C94.6962 285.591 90.7239 277.101 87.2421 268.452C83.7296 259.707 80.7014 250.862 80.1129 241.573C79.8397 237.122 80.0305 232.659 80.683 228.237C80.8117 227.332 79.1689 227.338 79.0401 228.237C77.7003 237.47 78.3887 246.838 81.0692 255.851C83.7847 264.918 87.7386 273.705 91.5944 282.449C95.3888 291.056 99.7166 299.721 101.549 308.841C103.388 317.876 103.039 327.091 102.831 336.222C102.565 345.529 102.913 354.842 103.873 364.116C104.866 373.268 106.435 382.372 108.317 391.418C112.161 409.933 117.316 428.194 121.662 446.608C122.741 451.193 123.763 455.79 124.727 460.399C125.175 462.589 125.518 464.806 126.027 466.991C126.321 468.276 126.891 469.546 128.197 470.302C129.637 471.143 131.697 471.244 133.376 471.445C135.828 471.73 138.28 471.942 140.732 472.08C145.839 472.365 151.405 472.577 156.364 471.307C158.013 470.884 159.846 470.207 160.765 468.879C162.046 467.033 160.882 465.144 159.447 463.674C153.563 457.601 152.091 449.586 151.871 441.911C151.589 432.918 152.257 423.925 152.33 414.932C152.498 395.362 151.867 375.807 150.436 356.266C149.043 336.904 146.846 317.61 143.846 298.382C140.873 279.275 137.208 260.215 132.561 241.356C131.409 236.683 130.213 232.023 128.975 227.375C128.84 226.846 127.951 227.084 128.074 227.586Z" fill="black"/>
<path d="M555.991 229.157H407.81C405.818 229.157 403.801 229.078 401.809 229.157H401.546L402.827 230.268V102.404C402.827 100.679 402.864 98.9494 402.827 97.2195V96.9921C402.827 95.5691 400.264 95.5691 400.264 96.9921V224.857C400.264 226.581 400.228 228.311 400.264 230.041V230.268C400.269 230.56 400.406 230.839 400.645 231.046C400.884 231.252 401.207 231.37 401.546 231.374H549.708C551.712 231.374 553.717 231.406 555.715 231.374H555.991C557.64 231.374 557.64 229.157 555.991 229.157Z" fill="black"/>
<path d="M418.017 101.219C415.105 101.155 412.181 100.96 409.263 101.002C409.082 101.016 408.914 101.089 408.791 101.205C408.669 101.321 408.601 101.472 408.601 101.629C408.601 101.786 408.669 101.937 408.791 102.053C408.914 102.169 409.082 102.241 409.263 102.256C412.181 102.293 415.105 102.102 418.017 102.039C418.134 102.027 418.241 101.979 418.32 101.904C418.398 101.828 418.441 101.73 418.441 101.629C418.441 101.528 418.398 101.43 418.32 101.354C418.241 101.279 418.134 101.23 418.017 101.219ZM412.739 110.106C412.163 110.074 411.58 110.021 411.004 109.984C410.427 109.922 409.845 109.888 409.263 109.884C409.071 109.887 408.888 109.954 408.753 110.072C408.618 110.189 408.542 110.348 408.54 110.513C408.545 110.678 408.622 110.835 408.757 110.952C408.891 111.069 409.072 111.138 409.263 111.143C409.845 111.136 410.426 111.102 411.004 111.042C411.58 111.005 412.163 110.953 412.739 110.921C412.864 110.921 412.984 110.878 413.073 110.801C413.161 110.725 413.211 110.621 413.211 110.513C413.211 110.405 413.161 110.302 413.073 110.225C412.984 110.149 412.864 110.106 412.739 110.106ZM418.017 118.988C415.105 118.925 412.181 118.734 409.263 118.771C409.082 118.786 408.914 118.858 408.791 118.974C408.669 119.09 408.601 119.241 408.601 119.398C408.601 119.555 408.669 119.706 408.791 119.822C408.914 119.938 409.082 120.01 409.263 120.025C412.181 120.062 415.105 119.871 418.017 119.808C418.134 119.797 418.241 119.748 418.32 119.673C418.398 119.597 418.441 119.499 418.441 119.398C418.441 119.297 418.398 119.199 418.32 119.123C418.241 119.048 418.134 118.999 418.017 118.988ZM412.739 127.875C412.163 127.843 411.58 127.791 411.004 127.754C410.426 127.694 409.845 127.66 409.263 127.653C409.071 127.656 408.888 127.723 408.753 127.841C408.618 127.958 408.542 128.117 408.54 128.283C408.545 128.447 408.622 128.604 408.757 128.721C408.891 128.839 409.072 128.907 409.263 128.912C409.845 128.908 410.427 128.874 411.004 128.812C411.58 128.775 412.163 128.722 412.739 128.69C412.864 128.69 412.984 128.647 413.073 128.571C413.161 128.494 413.211 128.391 413.211 128.283C413.211 128.175 413.161 128.071 413.073 127.995C412.984 127.918 412.864 127.875 412.739 127.875ZM418.017 136.757C415.105 136.694 412.181 136.503 409.263 136.54C409.082 136.555 408.914 136.627 408.791 136.743C408.669 136.859 408.601 137.01 408.601 137.167C408.601 137.324 408.669 137.475 408.791 137.591C408.914 137.707 409.082 137.78 409.263 137.794C412.181 137.836 415.105 137.641 418.017 137.577C418.134 137.566 418.241 137.518 418.32 137.442C418.398 137.366 418.441 137.268 418.441 137.167C418.441 137.066 418.398 136.968 418.32 136.892C418.241 136.817 418.134 136.769 418.017 136.757ZM412.739 145.644C412.163 145.613 411.58 145.56 411.004 145.523C410.426 145.463 409.845 145.429 409.263 145.422C409.071 145.425 408.888 145.492 408.753 145.61C408.618 145.728 408.542 145.886 408.54 146.052C408.545 146.216 408.622 146.374 408.757 146.491C408.891 146.608 409.072 146.676 409.263 146.681C409.845 146.677 410.427 146.643 411.004 146.581C411.58 146.544 412.163 146.491 412.739 146.459C412.864 146.459 412.984 146.416 413.073 146.34C413.161 146.263 413.211 146.16 413.211 146.052C413.211 145.944 413.161 145.84 413.073 145.764C412.984 145.687 412.864 145.644 412.739 145.644ZM418.017 154.526C415.105 154.463 412.181 154.272 409.263 154.309C409.082 154.324 408.914 154.396 408.791 154.512C408.669 154.628 408.601 154.779 408.601 154.936C408.601 155.093 408.669 155.245 408.791 155.36C408.914 155.476 409.082 155.549 409.263 155.563C412.181 155.605 415.105 155.41 418.017 155.346C418.134 155.335 418.241 155.287 418.32 155.211C418.398 155.135 418.441 155.038 418.441 154.936C418.441 154.835 418.398 154.737 418.32 154.661C418.241 154.586 418.134 154.538 418.017 154.526ZM412.739 163.413C412.163 163.382 411.58 163.329 411.004 163.292C410.426 163.232 409.845 163.198 409.263 163.191C409.07 163.191 408.884 163.258 408.747 163.376C408.611 163.494 408.534 163.654 408.534 163.821C408.534 163.988 408.611 164.148 408.747 164.266C408.884 164.384 409.07 164.45 409.263 164.45C409.845 164.445 410.426 164.413 411.004 164.355C411.58 164.313 412.163 164.265 412.739 164.233C412.865 164.231 412.985 164.186 413.074 164.11C413.163 164.033 413.214 163.929 413.217 163.821C413.214 163.713 413.162 163.61 413.073 163.534C412.984 163.458 412.864 163.415 412.739 163.413ZM418.017 172.295C415.105 172.232 412.181 172.041 409.263 172.078C409.082 172.093 408.914 172.165 408.791 172.281C408.669 172.397 408.601 172.548 408.601 172.705C408.601 172.862 408.669 173.014 408.791 173.13C408.914 173.246 409.082 173.318 409.263 173.332C412.181 173.375 415.105 173.179 418.017 173.115C418.134 173.104 418.241 173.056 418.32 172.98C418.398 172.905 418.441 172.807 418.441 172.705C418.441 172.604 418.398 172.506 418.32 172.431C418.241 172.355 418.134 172.307 418.017 172.295ZM412.739 181.183C412.163 181.151 411.58 181.098 411.004 181.061C410.426 181 409.845 180.968 409.263 180.966C409.072 180.967 408.889 181.033 408.754 181.15C408.618 181.267 408.542 181.425 408.54 181.59C408.543 181.755 408.62 181.913 408.755 182.03C408.89 182.148 409.072 182.215 409.263 182.219C409.845 182.217 410.426 182.185 411.004 182.124C411.58 182.082 412.163 182.034 412.739 182.003C412.865 182 412.985 181.955 413.074 181.879C413.163 181.802 413.214 181.698 413.217 181.59C413.214 181.482 413.162 181.379 413.073 181.303C412.984 181.227 412.864 181.184 412.739 181.183ZM418.017 190.064C415.105 190.001 412.181 189.811 409.263 189.848C409.07 189.848 408.884 189.914 408.747 190.032C408.611 190.15 408.534 190.31 408.534 190.477C408.534 190.644 408.611 190.804 408.747 190.922C408.884 191.04 409.07 191.107 409.263 191.107C412.181 191.144 415.105 190.948 418.017 190.884C418.134 190.873 418.241 190.825 418.32 190.749C418.398 190.674 418.441 190.576 418.441 190.474C418.441 190.373 418.398 190.275 418.32 190.2C418.241 190.124 418.134 190.076 418.017 190.064ZM412.739 198.952C412.163 198.92 411.58 198.867 411.004 198.83C410.426 198.769 409.845 198.738 409.263 198.735C409.082 198.749 408.914 198.821 408.791 198.937C408.669 199.053 408.601 199.205 408.601 199.362C408.601 199.519 408.669 199.67 408.791 199.786C408.914 199.902 409.082 199.974 409.263 199.989C409.845 199.986 410.426 199.954 411.004 199.893C411.58 199.851 412.163 199.803 412.739 199.772C412.865 199.769 412.985 199.725 413.074 199.648C413.163 199.571 413.214 199.468 413.217 199.359C413.214 199.251 413.162 199.148 413.073 199.072C412.984 198.996 412.864 198.953 412.739 198.952ZM418.017 207.839C415.105 207.77 412.181 207.58 409.263 207.617C409.07 207.617 408.884 207.683 408.747 207.801C408.611 207.919 408.534 208.079 408.534 208.246C408.534 208.413 408.611 208.573 408.747 208.691C408.884 208.809 409.07 208.876 409.263 208.876C412.181 208.913 415.105 208.717 418.017 208.654C418.142 208.654 418.262 208.611 418.351 208.534C418.439 208.458 418.489 208.354 418.489 208.246C418.489 208.138 418.439 208.035 418.351 207.958C418.262 207.882 418.142 207.839 418.017 207.839ZM412.739 216.721C412.163 216.689 411.58 216.636 411.004 216.599C410.426 216.538 409.845 216.507 409.263 216.504C409.082 216.518 408.914 216.591 408.791 216.706C408.669 216.822 408.601 216.974 408.601 217.131C408.601 217.288 408.669 217.439 408.791 217.555C408.914 217.671 409.082 217.743 409.263 217.758C409.845 217.755 410.426 217.723 411.004 217.662C411.58 217.625 412.163 217.572 412.739 217.541C412.865 217.538 412.985 217.494 413.074 217.417C413.163 217.34 413.214 217.237 413.217 217.128C413.214 217.02 413.162 216.917 413.073 216.841C412.984 216.765 412.864 216.722 412.739 216.721ZM385.454 301.768H390.861V467.456H385.454V301.768Z" fill="black"/>
<path d="M150.081 447.968C145.79 448.296 141.499 448.618 137.208 448.968L130.857 449.497L127.682 449.756L126.174 449.877C125.921 449.913 125.664 449.931 125.408 449.93H125.242C125.077 449.856 125.052 449.877 125.175 449.999C125.186 449.93 125.18 449.859 125.16 449.791C125.139 449.723 125.103 449.66 125.054 449.604C125.004 449.548 124.943 449.501 124.873 449.466C124.802 449.431 124.725 449.408 124.644 449.399C124.564 449.389 124.482 449.394 124.404 449.412C124.325 449.43 124.251 449.461 124.187 449.503C124.122 449.546 124.068 449.599 124.027 449.659C123.986 449.72 123.96 449.787 123.949 449.856C123.477 451.66 127.014 450.946 128.007 450.861L135.424 450.179C140.328 449.729 145.195 449.253 150.081 448.777C150.651 448.724 150.694 447.952 150.081 447.994V447.968ZM135.185 308.804C131.904 309.748 128.337 309.622 125.156 308.449C124.592 308.238 124.102 308.947 124.666 309.169C128.056 310.504 131.92 310.632 135.418 309.523C135.933 309.359 135.724 308.65 135.185 308.804ZM134.149 317.363H127.97C127.848 317.363 127.731 317.405 127.645 317.479C127.559 317.553 127.51 317.654 127.51 317.76C127.51 317.865 127.559 317.966 127.645 318.04C127.731 318.115 127.848 318.156 127.97 318.156H134.149C134.268 318.156 134.381 318.116 134.465 318.043C134.549 317.971 134.596 317.873 134.596 317.77C134.596 317.668 134.549 317.57 134.465 317.497C134.381 317.425 134.268 317.384 134.149 317.384V317.363ZM50.1986 230.337C60.2212 231.607 70.0844 229.073 79.4816 226.317C89.167 223.474 98.7319 220.339 108.176 216.911C113.436 215 118.65 212.998 123.82 210.907C124.47 210.642 123.906 209.812 123.25 210.071C114.108 213.753 104.829 217.161 95.4135 220.297C90.7792 221.838 86.1123 223.312 81.4126 224.719C76.6864 226.132 71.9356 227.518 67.0623 228.528C61.582 229.66 55.9302 230.226 50.3151 229.586C49.8186 229.528 49.7021 230.279 50.1986 230.342V230.337ZM249.945 165.328C265.552 165.524 281.165 165.466 296.778 165.503C312.307 165.542 327.816 165.6 343.305 165.677C352.07 165.714 360.861 165.815 369.627 165.619C369.838 165.619 370.041 165.547 370.19 165.418C370.34 165.289 370.424 165.114 370.424 164.932C370.424 164.749 370.34 164.574 370.19 164.445C370.041 164.316 369.838 164.244 369.627 164.244C361.829 164.069 354.014 164.175 346.21 164.18C338.407 164.186 330.597 164.244 322.794 164.276C307.264 164.343 291.755 164.387 276.267 164.408C267.489 164.408 258.717 164.408 249.945 164.535C249.823 164.535 249.706 164.577 249.62 164.651C249.533 164.725 249.485 164.826 249.485 164.932C249.485 165.037 249.533 165.138 249.62 165.212C249.706 165.287 249.823 165.328 249.945 165.328ZM371.202 197.158C355.595 196.963 339.976 197.021 324.369 196.984C308.86 196.945 293.351 196.887 277.842 196.809C269.07 196.772 260.28 196.672 251.514 196.867C251.303 196.867 251.1 196.94 250.95 197.069C250.801 197.198 250.717 197.373 250.717 197.555C250.717 197.737 250.801 197.912 250.95 198.041C251.1 198.17 251.303 198.243 251.514 198.243C259.317 198.417 267.127 198.311 274.931 198.306C282.734 198.301 290.544 198.243 298.347 198.211C313.856 198.144 329.367 198.1 344.88 198.079C353.652 198.079 362.43 198.079 371.202 197.952C371.324 197.952 371.441 197.91 371.527 197.836C371.614 197.761 371.662 197.66 371.662 197.555C371.662 197.45 371.614 197.349 371.527 197.274C371.441 197.2 371.324 197.158 371.202 197.158ZM371.202 207.468C355.595 207.273 339.976 207.331 324.369 207.294C308.86 207.255 293.351 207.199 277.842 207.125C269.07 207.082 260.28 206.982 251.514 207.183C251.315 207.198 251.131 207.277 250.996 207.403C250.862 207.53 250.787 207.696 250.787 207.868C250.787 208.04 250.862 208.206 250.996 208.332C251.131 208.459 251.315 208.538 251.514 208.553C259.317 208.727 267.127 208.622 274.931 208.616C282.734 208.611 290.544 208.558 298.347 208.521C313.856 208.458 329.367 208.414 344.88 208.389C353.652 208.389 362.43 208.389 371.202 208.262C371.324 208.262 371.441 208.22 371.527 208.146C371.614 208.071 371.662 207.97 371.662 207.865C371.662 207.76 371.614 207.659 371.527 207.585C371.441 207.51 371.324 207.468 371.202 207.468ZM371.202 217.779C355.595 217.583 339.976 217.641 324.369 217.604C308.86 217.565 293.351 217.509 277.842 217.435C269.07 217.398 260.28 217.297 251.514 217.493C251.315 217.508 251.131 217.587 250.996 217.714C250.862 217.84 250.787 218.006 250.787 218.178C250.787 218.35 250.862 218.516 250.996 218.643C251.131 218.769 251.315 218.848 251.514 218.863C259.317 219.038 267.127 218.932 274.931 218.927C282.734 218.921 290.544 218.868 298.347 218.831C313.856 218.768 329.367 218.724 344.88 218.699C353.652 218.699 362.43 218.699 371.202 218.577C371.316 218.566 371.421 218.519 371.497 218.446C371.573 218.372 371.615 218.277 371.615 218.178C371.615 218.079 371.573 217.984 371.497 217.911C371.421 217.837 371.316 217.79 371.202 217.779ZM371.202 228.089C355.595 227.898 339.976 227.951 324.369 227.914C308.86 227.883 293.351 227.826 277.842 227.745C269.07 227.708 260.28 227.607 251.514 227.803C251.315 227.818 251.131 227.897 250.996 228.024C250.862 228.151 250.787 228.316 250.787 228.488C250.787 228.66 250.862 228.826 250.996 228.953C251.131 229.08 251.315 229.158 251.514 229.173C259.317 229.348 267.127 229.247 274.931 229.237C282.734 229.226 290.544 229.179 298.347 229.147C313.856 229.08 329.367 229.036 344.88 229.015C353.652 228.988 362.43 229.015 371.202 228.888C371.316 228.876 371.421 228.829 371.497 228.756C371.573 228.682 371.615 228.587 371.615 228.488C371.615 228.39 371.573 228.294 371.497 228.221C371.421 228.147 371.316 228.1 371.202 228.089ZM371.202 244.662C355.595 244.467 339.976 244.52 324.369 244.488C308.86 244.453 293.351 244.394 277.842 244.313C269.07 244.276 260.28 244.176 251.514 244.371C251.315 244.387 251.131 244.465 250.996 244.592C250.862 244.719 250.787 244.885 250.787 245.057C250.787 245.228 250.862 245.394 250.996 245.521C251.131 245.648 251.315 245.727 251.514 245.742C259.317 245.921 267.127 245.816 274.931 245.81C282.734 245.805 290.544 245.747 298.347 245.715C313.856 245.648 329.367 245.604 344.88 245.583C353.652 245.583 362.43 245.583 371.202 245.456C371.324 245.456 371.441 245.414 371.527 245.34C371.614 245.265 371.662 245.164 371.662 245.059C371.662 244.954 371.614 244.853 371.527 244.779C371.441 244.704 371.324 244.662 371.202 244.662ZM371.202 254.978C355.595 254.782 339.976 254.84 324.369 254.803C308.86 254.765 293.351 254.706 277.842 254.629C269.07 254.592 260.28 254.491 251.514 254.687C251.303 254.687 251.1 254.759 250.95 254.888C250.801 255.017 250.717 255.192 250.717 255.375C250.717 255.557 250.801 255.732 250.95 255.861C251.1 255.99 251.303 256.062 251.514 256.062C259.317 256.237 267.127 256.131 274.931 256.126C282.734 256.121 290.562 256.036 298.347 256.036C313.856 255.969 329.367 255.925 344.88 255.904C353.652 255.904 362.43 255.904 371.202 255.777C371.324 255.777 371.441 255.735 371.527 255.661C371.614 255.586 371.662 255.485 371.662 255.38C371.662 255.275 371.614 255.174 371.527 255.099C371.441 255.025 371.324 254.983 371.202 254.983V254.978ZM371.202 265.283C355.595 265.087 339.976 265.145 324.369 265.108C308.86 265.069 293.351 265.013 277.842 264.939C269.07 264.897 260.28 264.796 251.514 264.997C251.315 265.012 251.131 265.091 250.996 265.218C250.862 265.345 250.787 265.51 250.787 265.682C250.787 265.854 250.862 266.02 250.996 266.147C251.131 266.274 251.315 266.352 251.514 266.367C259.317 266.542 267.127 266.436 274.931 266.431C282.734 266.425 290.544 266.367 298.347 266.336C313.856 266.272 329.367 266.228 344.88 266.203C353.652 266.203 362.43 266.203 371.202 266.076C371.324 266.076 371.441 266.035 371.527 265.96C371.614 265.886 371.662 265.785 371.662 265.68C371.662 265.574 371.614 265.473 371.527 265.399C371.441 265.325 371.324 265.283 371.202 265.283ZM371.202 275.609C355.595 275.413 339.976 275.471 324.369 275.434C308.86 275.399 293.351 275.343 277.842 275.265C269.07 275.228 260.28 275.128 251.514 275.323C251.315 275.338 251.131 275.417 250.996 275.544C250.862 275.671 250.787 275.836 250.787 276.008C250.787 276.18 250.862 276.346 250.996 276.473C251.131 276.6 251.315 276.678 251.514 276.693C259.317 276.868 267.127 276.762 274.931 276.757C282.734 276.752 290.562 276.667 298.347 276.667C313.856 276.603 329.367 276.559 344.88 276.535C353.652 276.535 362.43 276.535 371.202 276.413C371.316 276.402 371.421 276.355 371.497 276.281C371.573 276.207 371.615 276.112 371.615 276.014C371.615 275.915 371.573 275.82 371.497 275.746C371.421 275.672 371.316 275.626 371.202 275.614V275.609Z" fill="#FFC549"/>
<path d="M353.769 460.119H422.547V471.566H353.769V460.119Z" fill="black"/>
</svg>
