<svg width="36" height="42" viewBox="0 0 36 42" fill="none" xmlns="http://www.w3.org/2000/svg">
<path d="M13.4382 35.0185H10.6715C9.76321 35.0185 8.8638 34.8471 8.02463 34.5142C7.18547 34.1813 6.42299 33.6932 5.78072 33.078C5.13845 32.4628 4.62897 31.7325 4.28138 30.9287C3.93379 30.1249 3.75488 29.2634 3.75488 28.3934V12.4931C3.75488 10.736 4.4836 9.05083 5.78072 7.80838C7.07784 6.56592 8.83711 5.86792 10.6715 5.86792H21.7381C22.6464 5.86792 23.5458 6.03928 24.385 6.37223C25.2242 6.70517 25.9867 7.19318 26.6289 7.80838C27.2712 8.42358 27.7807 9.15393 28.1283 9.95772C28.4759 10.7615 28.6548 11.623 28.6548 12.4931V15.1431C28.6548 15.4945 28.509 15.8315 28.2496 16.08C27.9902 16.3285 27.6383 16.4681 27.2714 16.4681C26.9045 16.4681 26.5527 16.3285 26.2933 16.08C26.0338 15.8315 25.8881 15.4945 25.8881 15.1431V12.4931C25.8881 11.4388 25.4509 10.4277 24.6726 9.68225C23.8943 8.93677 22.8388 8.51797 21.7381 8.51797H10.6715C9.57087 8.51797 8.51531 8.93677 7.73704 9.68225C6.95876 10.4277 6.52154 11.4388 6.52154 12.4931V28.3934C6.52154 29.4476 6.95876 30.4587 7.73704 31.2042C8.51531 31.9496 9.57087 32.3685 10.6715 32.3685H13.4382C13.805 32.3685 14.1569 32.508 14.4163 32.7565C14.6757 33.005 14.8215 33.3421 14.8215 33.6935C14.8215 34.0449 14.6757 34.3819 14.4163 34.6304C14.1569 34.8789 13.805 35.0185 13.4382 35.0185Z" fill="black"/>
<path d="M18.9714 21.7682H10.6714C10.3045 21.7682 9.95268 21.6286 9.69325 21.3801C9.43383 21.1316 9.28809 20.7946 9.28809 20.4432C9.28809 20.0918 9.43383 19.7547 9.69325 19.5063C9.95268 19.2578 10.3045 19.1182 10.6714 19.1182H18.9714C19.3383 19.1182 19.6901 19.2578 19.9495 19.5063C20.209 19.7547 20.3547 20.0918 20.3547 20.4432C20.3547 20.7946 20.209 21.1316 19.9495 21.3801C19.6901 21.6286 19.3383 21.7682 18.9714 21.7682Z" fill="black"/>
<path d="M13.4381 27.0683H10.6714C10.3045 27.0683 9.95268 26.9287 9.69325 26.6802C9.43383 26.4317 9.28809 26.0947 9.28809 25.7432C9.28809 25.3918 9.43383 25.0548 9.69325 24.8063C9.95268 24.5578 10.3045 24.4182 10.6714 24.4182H13.4381C13.8049 24.4182 14.1568 24.5578 14.4162 24.8063C14.6756 25.0548 14.8214 25.3918 14.8214 25.7432C14.8214 26.0947 14.6756 26.4317 14.4162 26.6802C14.1568 26.9287 13.8049 27.0683 13.4381 27.0683Z" fill="black"/>
<path d="M21.738 16.4682H10.6714C10.3045 16.4682 9.95268 16.3286 9.69325 16.0801C9.43383 15.8316 9.28809 15.4946 9.28809 15.1431C9.28809 14.7917 9.43383 14.4547 9.69325 14.2062C9.95268 13.9577 10.3045 13.8181 10.6714 13.8181H21.738C22.1049 13.8181 22.4568 13.9577 22.7162 14.2062C22.9756 14.4547 23.1213 14.7917 23.1213 15.1431C23.1213 15.4946 22.9756 15.8316 22.7162 16.0801C22.4568 16.3286 22.1049 16.4682 21.738 16.4682Z" fill="black"/>
<path d="M18.9712 35.0185C18.7734 35.0201 18.5775 34.981 18.3968 34.9039C18.216 34.8268 18.0547 34.7135 17.9236 34.5716C17.7925 34.4297 17.6946 34.2625 17.6367 34.0813C17.5788 33.9001 17.5622 33.7091 17.5879 33.5212L18.0444 30.1291C18.1522 29.2552 18.5668 28.4422 19.2202 27.8236L27.0914 20.2842C27.883 19.5647 28.9327 19.1636 30.024 19.1636C31.1153 19.1636 32.165 19.5647 32.9567 20.2842C33.7338 21.0295 34.1703 22.0398 34.1703 23.0932C34.1703 24.1466 33.7338 25.157 32.9567 25.9023L25.0855 33.4417C24.4397 34.0676 23.591 34.4647 22.6786 34.568L19.1511 35.0185H18.9712ZM30.0379 21.7682C29.8558 21.7672 29.6753 21.8006 29.5068 21.8666C29.3382 21.9325 29.185 22.0297 29.0557 22.1525L21.1984 29.7184C20.9793 29.9247 20.8381 30.1951 20.7972 30.4869L20.5759 32.1829L22.3466 31.9709C22.6411 31.9174 22.9115 31.7787 23.1212 31.5734L30.9923 24.034C31.122 23.9108 31.2249 23.7643 31.2951 23.6028C31.3654 23.4413 31.4015 23.2682 31.4015 23.0932C31.4015 22.9183 31.3654 22.7451 31.2951 22.5837C31.2249 22.4222 31.122 22.2756 30.9923 22.1525C30.7381 21.9109 30.396 21.7731 30.0379 21.7682Z" fill="black"/>
</svg>
