<svg width="32" height="24" viewBox="0 0 32 24" fill="none" xmlns="http://www.w3.org/2000/svg">
<path d="M1.75863 19.9167H20.7586C21.6331 19.9167 22.342 20.6256 22.342 21.5001C22.342 22.312 21.7308 22.9813 20.9432 23.0728L20.7586 23.0834H1.75863C0.884183 23.0834 0.175293 22.3746 0.175293 21.5001C0.175293 20.6881 0.786523 20.0189 1.57398 19.9274L1.75863 19.9167ZM1.75863 13.5834H30.2586C31.1331 13.5834 31.842 14.2923 31.842 15.1667C31.842 15.9787 31.2308 16.648 30.4432 16.7395L30.2586 16.7501H1.75863C0.884183 16.7501 0.175293 16.0412 0.175293 15.1667C0.175293 14.3548 0.786523 13.6855 1.57398 13.594L1.75863 13.5834ZM1.75863 7.25008H30.2586C31.1331 7.25008 31.842 7.95897 31.842 8.83342C31.842 9.64535 31.2308 10.3146 30.4432 10.4061L30.2586 10.4167H1.75863C0.884183 10.4167 0.175293 9.70789 0.175293 8.83342C0.175293 8.02142 0.786523 7.35219 1.57398 7.26074L1.75863 7.25008ZM1.75863 0.916748H30.2586C31.1331 0.916748 31.842 1.62564 31.842 2.50008C31.842 3.31208 31.2308 3.98131 30.4432 4.07276L30.2586 4.08341H1.75863C0.884183 4.08341 0.175293 3.37452 0.175293 2.50008C0.175293 1.68808 0.786523 1.01886 1.57398 0.927404L1.75863 0.916748Z" fill="#FF77B4"/>
</svg>
