<svg width="34" height="37" viewBox="0 0 34 37" fill="none" xmlns="http://www.w3.org/2000/svg">
<path fill-rule="evenodd" clip-rule="evenodd" d="M22.9226 29.056V18.4902C22.9226 16.5451 21.507 14.9683 19.7608 14.9683H5.53307C3.78689 14.9683 2.37134 16.5451 2.37134 18.4902V29.056C2.37134 31.0011 3.78689 32.578 5.53307 32.578H19.7608C21.507 32.578 22.9226 31.0011 22.9226 29.056Z" stroke="black" stroke-linecap="round" stroke-linejoin="round"/>
<path d="M26.0844 29.0559V16.7382C26.0844 13.8206 23.9611 11.4553 21.3418 11.4553H21.3336L7.11401 11.4827" stroke="black" stroke-linecap="round" stroke-linejoin="round"/>
<path d="M29.246 25.5341V14.9804C29.246 11.0902 26.4149 7.93652 22.9226 7.93652C22.9189 7.93652 22.9153 7.93652 22.9116 7.93652L10.2756 7.96085" stroke="black" stroke-linecap="round" stroke-linejoin="round"/>
</svg>
