<svg width="25" height="29" viewBox="0 0 25 29" fill="none" xmlns="http://www.w3.org/2000/svg">
<g clip-path="url(#clip0_3696_1031)">
<path d="M8.84982 14.2005C7.7882 14.2005 6.75042 13.8499 5.86772 13.1929C4.98501 12.5359 4.29703 11.602 3.89077 10.5095C3.4845 9.41694 3.37821 8.21472 3.58532 7.05488C3.79243 5.89504 4.30365 4.82965 5.05432 3.99345C5.805 3.15725 6.76142 2.58779 7.80264 2.35708C8.84386 2.12637 9.92311 2.24478 10.9039 2.69733C11.8847 3.14988 12.723 3.91624 13.3128 4.89951C13.9026 5.88278 14.2175 7.03879 14.2175 8.22136C14.2175 9.80713 13.6519 11.328 12.6453 12.4493C11.6387 13.5706 10.2734 14.2005 8.84982 14.2005ZM8.84982 3.09636C7.93986 3.09636 7.05033 3.39693 6.29373 3.96008C5.53713 4.52322 4.94743 5.32363 4.5992 6.2601C4.25098 7.19658 4.15987 8.22704 4.33739 9.22119C4.51491 10.2153 4.9531 11.1285 5.59654 11.8453C6.23998 12.562 7.05977 13.0501 7.95224 13.2479C8.84471 13.4456 9.76979 13.3441 10.6105 12.9562C11.4512 12.5683 12.1697 11.9115 12.6753 11.0687C13.1808 10.2259 13.4506 9.23499 13.4506 8.22136C13.4506 6.86212 12.9659 5.55856 12.1031 4.59743C11.2403 3.63631 10.07 3.09636 8.84982 3.09636Z" fill="black"/>
<path d="M16.5181 14.2005V13.3464C17.7383 13.3464 18.9085 12.8064 19.7713 11.8453C20.6342 10.8842 21.1189 9.58059 21.1189 8.22135C21.1189 6.86212 20.6342 5.55856 19.7713 4.59743C18.9085 3.63631 17.7383 3.09635 16.5181 3.09635V2.24219C17.9417 2.24219 19.3069 2.87213 20.3136 3.99345C21.3202 5.11476 21.8857 6.63558 21.8857 8.22135C21.8857 9.80713 21.3202 11.328 20.3136 12.4493C19.3069 13.5706 17.9417 14.2005 16.5181 14.2005Z" fill="black"/>
<path d="M16.9013 27.0131H0.798442C0.696757 27.0131 0.599237 26.9681 0.527335 26.888C0.455433 26.8079 0.415039 26.6993 0.415039 26.586V22.7423C0.415039 20.2503 1.30371 17.8605 2.88555 16.0984C4.46739 14.3364 6.61283 13.3464 8.8499 13.3464C11.087 13.3464 13.2324 14.3364 14.8142 16.0984C16.3961 17.8605 17.2848 20.2503 17.2848 22.7423V26.586C17.2848 26.6993 17.2444 26.8079 17.1725 26.888C17.1006 26.9681 17.003 27.0131 16.9013 27.0131ZM1.18184 26.1589H16.5179V22.7423C16.5179 20.4769 15.7101 18.3043 14.272 16.7024C12.834 15.1005 10.8836 14.2006 8.8499 14.2006C6.8162 14.2006 4.8658 15.1005 3.42776 16.7024C1.98973 18.3043 1.18184 20.4769 1.18184 22.7423V26.1589Z" fill="black"/>
<path d="M24.5695 27.0131H18.4351V26.1589H24.1861V22.7423C24.1861 20.4769 23.3782 18.3043 21.9402 16.7024C20.5022 15.1005 18.5518 14.2006 16.5181 14.2006V13.3464C18.7551 13.3464 20.9006 14.3364 22.4824 16.0984C24.0643 17.8605 24.9529 20.2503 24.9529 22.7423V26.586C24.9529 26.6993 24.9125 26.8079 24.8406 26.888C24.7687 26.9681 24.6712 27.0131 24.5695 27.0131Z" fill="black"/>
</g>
<defs>
<clipPath id="clip0_3696_1031">
<rect width="24.5378" height="27.3333" fill="white" transform="translate(0.415039 0.960938)"/>
</clipPath>
</defs>
</svg>
