<svg width="43" height="44" viewBox="0 0 43 44" fill="none" xmlns="http://www.w3.org/2000/svg">
<path d="M21.2651 0C9.52431 0 0.00878906 9.77383 0.00878906 21.8333C0.00878906 33.8928 9.52431 43.6667 21.2651 43.6667C33.0059 43.6667 42.5214 33.8928 42.5214 21.8333C42.5214 9.77383 33.0059 0 21.2651 0ZM21.2651 10.9167C24.5673 10.9167 27.2434 13.6663 27.2434 17.0573C27.2434 20.4483 24.5698 23.1979 21.2651 23.1979C17.9637 23.1979 15.2868 20.4483 15.2868 17.0573C15.2868 13.6663 17.9604 10.9167 21.2651 10.9167ZM21.2651 38.2083C16.8702 38.2083 12.8871 36.3721 9.9976 33.4076C11.3427 29.8417 14.664 27.2917 18.6081 27.2917H23.9221C27.8695 27.2917 31.1908 29.84 32.5326 33.4076C29.6431 36.3747 25.6575 38.2083 21.2651 38.2083Z" fill="#7659FF"/>
</svg>
