<svg width="43" height="39" viewBox="0 0 43 39" fill="none" xmlns="http://www.w3.org/2000/svg">
<path d="M19.3165 34.7138C15.4 34.7112 11.6448 33.2989 8.87547 30.7872C6.10612 28.2755 4.54903 24.8696 4.54614 21.3175C4.54698 13.9311 11.17 7.92188 19.3165 7.92188C19.6506 7.92188 19.971 8.04225 20.2073 8.25653C20.4435 8.4708 20.5762 8.76142 20.5762 9.06445V20.1749H32.827C33.1612 20.1749 33.4816 20.2953 33.7178 20.5095C33.9541 20.7238 34.0868 21.0144 34.0868 21.3175C34.0868 28.7038 27.463 34.7138 19.3165 34.7138ZM18.0567 10.2626C11.8914 10.8362 7.06651 15.5741 7.06567 21.3152C7.0679 24.2616 8.35924 27.0869 10.6562 29.1706C12.9531 31.2542 16.0678 32.426 19.3165 32.4287C25.6464 32.4287 30.8702 28.0526 31.5026 22.46H19.3165C18.9824 22.46 18.6619 22.3397 18.4257 22.1254C18.1894 21.9111 18.0567 21.6205 18.0567 21.3175V10.2626Z" fill="#20161A"/>
<path d="M37.048 18.9387H23.199C22.8649 18.9387 22.5444 18.8183 22.3082 18.604C22.0719 18.3897 21.9392 18.0991 21.9392 17.7961V5.23535C21.9392 4.93232 22.0719 4.6417 22.3082 4.42743C22.5444 4.21315 22.8649 4.09277 23.199 4.09277C31.5302 4.09277 38.3078 10.2406 38.3078 17.7961C38.3078 18.0991 38.175 18.3897 37.9388 18.604C37.7025 18.8183 37.3821 18.9387 37.048 18.9387ZM24.4587 16.6535H35.7261C35.4315 14.0343 34.1498 11.5875 32.0971 9.72592C30.0445 7.86434 27.3466 6.702 24.4587 6.43506V16.6535Z" fill="#20161A"/>
</svg>
