<svg width="45" height="50" viewBox="0 0 45 50" fill="none" xmlns="http://www.w3.org/2000/svg">
<g clip-path="url(#clip0_3616_1531)">
<path d="M35.8906 22.2192C38.7502 22.2192 40.8196 17.8424 40.8196 14.8985C40.8196 11.869 38.6103 9.40796 35.8906 9.40796C33.178 9.40796 30.9617 11.869 30.9617 14.8985C30.9617 17.8424 33.0312 22.2192 35.8906 22.2192Z" fill="black"/>
<path d="M39.6662 22.4138H37.8344L35.8907 26.5414L33.9541 22.4138H32.1154C29.3887 22.4138 27.1584 24.8281 27.0675 27.8343C26.7669 27.7642 26.4523 27.733 26.1377 27.733H24.2989L22.3623 31.8606L20.4256 27.733H18.5869C18.2793 27.733 17.9716 27.7642 17.678 27.8265C17.5801 24.8203 15.3498 22.4138 12.6302 22.4138H10.7914L8.85479 26.5414L6.91814 22.4138H5.07939C2.2898 22.4138 0.0175781 24.9449 0.0175781 28.0523V35.116H13.5251V40.4352H31.1995V35.116H44.728V28.0523C44.728 24.9449 42.4557 22.4138 39.6662 22.4138ZM29.8012 38.8776H14.9234V33.3715C14.9234 31.1208 16.5664 29.2906 18.5869 29.2906H19.5727L22.3623 35.2173L25.1519 29.2906H26.1377C28.1582 29.2906 29.8012 31.1208 29.8012 33.3715V38.8776Z" fill="black"/>
<path d="M8.88966 22.2192C11.7492 22.2192 13.8186 17.8424 13.8186 14.8985C13.8186 11.869 11.6094 9.40796 8.88966 9.40796C6.16997 9.40796 3.96069 11.869 3.96069 14.8985C3.96069 17.8424 6.03018 22.2192 8.88966 22.2192Z" fill="black"/>
<path d="M22.3623 27.5362C25.2214 27.5362 27.2908 23.1616 27.2908 20.2122C27.2908 17.1848 25.0801 14.7222 22.3623 14.7222C19.6446 14.7222 17.4338 17.1848 17.4338 20.2122C17.4338 23.1616 19.5033 27.5362 22.3623 27.5362ZM22.3623 16.2798C24.3089 16.2798 25.8926 18.0439 25.8926 20.2122C25.8926 22.6235 24.1136 25.9786 22.3623 25.9786C20.6111 25.9786 18.8321 22.6235 18.8321 20.2122C18.8321 18.0439 20.4158 16.2798 22.3623 16.2798Z" fill="black"/>
</g>
<defs>
<clipPath id="clip0_3616_1531">
<rect width="44.7453" height="49.8431" fill="white"/>
</clipPath>
</defs>
</svg>
