<svg width="28" height="26" viewBox="0 0 28 26" fill="none" xmlns="http://www.w3.org/2000/svg">
<path d="M27.3511 20.1652C27.3511 23.3898 24.6029 26 21.2197 26H6.1607C2.77749 26 0.0292969 23.3848 0.0292969 20.1652V5.83477C0.0292969 2.61523 2.77749 0 6.1607 0H21.2197C24.6029 0 27.3511 2.61523 27.3511 5.83477V20.1652Z" fill="#FF77B5"/>
<path d="M20.4728 6.80986L6.23558 12.086C5.77666 12.2587 5.80334 12.8884 6.27827 13.0204L9.89628 14.036L11.2464 18.1138C11.3851 18.5403 11.9561 18.6673 12.2816 18.3474L14.1546 16.5294L17.826 19.0938C18.2743 19.4087 18.9146 19.1751 19.0267 18.6571L21.4547 7.59697C21.5774 7.05869 21.0171 6.60674 20.4728 6.80986ZM18.6905 9.26259L12.0788 14.8282C12.0148 14.8841 11.9721 14.9603 11.9614 15.0415L11.7053 17.1946C11.6946 17.2657 11.5932 17.2759 11.5719 17.2048L10.526 13.9903C10.4779 13.8431 10.542 13.6856 10.6807 13.6044L18.4877 8.99345C18.6638 8.89697 18.8506 9.13056 18.6905 9.26259Z" fill="white"/>
</svg>
