<svg width="34" height="23" viewBox="0 0 34 23" fill="none" xmlns="http://www.w3.org/2000/svg">
<path d="M33.0625 3.59865C32.6851 2.18219 31.5732 1.06653 30.1615 0.687859C27.6027 2.71268e-07 17.3423 0 17.3423 0C17.3423 0 7.08187 2.71268e-07 4.52298 0.68793C3.1113 1.0666 1.99948 2.18219 1.62215 3.59873C0.936523 6.1662 0.936523 11.5232 0.936523 11.5232C0.936523 11.5232 0.936523 16.8803 1.62215 19.4477C1.99948 20.8642 3.1113 21.9334 4.52298 22.3121C7.08187 23 17.3423 23 17.3423 23C17.3423 23 27.6027 23 30.1615 22.3121C31.5732 21.9333 32.6851 20.8642 33.0625 19.4476C33.7481 16.8802 33.7481 11.5231 33.7481 11.5231C33.7481 11.5231 33.7481 6.1662 33.0625 3.59865Z" fill="#7659FF"/>
<path d="M13.9863 16.3868V6.6593L22.562 11.5232L13.9863 16.3868Z" fill="white"/>
</svg>
